<?xml version="1.0" encoding="iso-8859-1"?>
<!-- Generator: Adobe Illustrator 19.0.0, SVG Export Plug-In . SVG Version: 6.00 Build 0)  -->
<svg version="1.1" id="Capa_1" xmlns="http://www.w3.org/2000/svg" xmlns:xlink="http://www.w3.org/1999/xlink" x="0px" y="0px"
	 viewBox="0 0 511.985 511.985" style="enable-background:new 0 0 511.985 511.985;" xml:space="preserve">
<g>
	<g>
		<g>
			<path d="M472.037,236.713c3.74-10.231,5.652-21.039,5.649-31.932c-0.087-42.041-28.061-78.919-68.523-90.334
				C406.473,49.518,352.346-1.334,287.375,0.027c-64.971,1.361-116.92,54.436-116.889,119.421c0,3.413,0.213,6.827,0.512,10.24
				c-27.485-5.334-55.915,1.914-77.491,19.756s-34.033,44.406-33.954,72.404c0,3.029,0.162,6.05,0.452,9.054
				c-35.73,4.434-61.874,35.855-59.739,71.796s31.816,64.045,67.82,64.217h66.893c11.349,40.653,40.687,100.864,116.625,143.957
				c2.614,1.485,5.817,1.485,8.431,0c75.947-43.093,105.276-103.305,116.625-143.957h66.893c32.08,0.039,59.85-22.285,66.706-53.623
				C517.115,281.952,501.203,250.072,472.037,236.713z M366.753,322.652c-0.378,10.863-1.908,21.656-4.565,32.196
				c-0.3,0.757-0.493,1.553-0.572,2.364c-9.165,36.506-34.671,94.37-105.796,136.38c-71.117-42.01-96.631-99.84-105.813-136.363
				c-0.081-0.817-0.276-1.618-0.58-2.381c-2.648-10.538-4.17-21.328-4.54-32.188V213.314c0-4.713,3.821-8.533,8.533-8.533h204.8
				c4.713,0,8.533,3.821,8.533,8.533V322.652z M479.751,334.82l0.009,0.051c-9.585,9.626-22.622,15.019-36.207,14.976h-62.857
				c1.838-8.953,2.883-18.051,3.123-27.187V213.314c0-14.139-11.461-25.6-25.6-25.6h-204.8c-14.139,0-25.6,11.461-25.6,25.6V322.66
				c0.24,9.137,1.285,18.234,3.123,27.187H68.086c-27.314-0.004-49.815-21.449-51.132-48.731
				c-1.317-27.282,19.013-50.794,46.2-53.43c4.645,16.259,13.62,30.951,25.967,42.505c2.203,2.187,5.42,3.004,8.401,2.135
				c2.98-0.869,5.253-3.288,5.935-6.317c0.682-3.028-0.334-6.188-2.654-8.252c-11.582-10.833-19.498-25.008-22.647-40.55
				c-5.486-27.003,3.903-54.876,24.608-73.057c20.705-18.181,49.558-23.887,75.625-14.956c0.167,0.032,0.335,0.055,0.503,0.068
				c0.56,0.13,1.132,0.204,1.707,0.222c0.548,0.055,1.099,0.055,1.647,0c0.179,0,0.35,0,0.529,0
				c0.352-0.111,0.695-0.251,1.024-0.418c0.538-0.16,1.058-0.374,1.553-0.64c0.48-0.288,0.929-0.626,1.34-1.007
				c0.877-0.702,1.567-1.611,2.005-2.645c0.192-0.288,0.365-0.587,0.521-0.896c0.051-0.162,0-0.333,0.06-0.495
				c0.137-0.559,0.215-1.131,0.23-1.707c0.057-0.567,0.057-1.139,0-1.707c0-0.179,0-0.341,0-0.512
				c-1.288-6.593-1.942-13.293-1.954-20.011c0.096-36.584,19.702-70.338,51.433-88.547c31.731-18.209,70.765-18.106,102.4,0.269
				c31.635,18.375,51.063,52.231,50.967,88.815c-0.05,0.359-0.079,0.721-0.085,1.084c-0.136,14.984-3.635,29.745-10.24,43.196
				c-2.067,4.242-0.303,9.355,3.938,11.422c4.242,2.067,9.355,0.303,11.422-3.938c6.05-12.43,9.854-25.832,11.238-39.586
				c31.042,10.644,51.919,39.802,51.994,72.619c0.028,11.075-2.363,22.022-7.006,32.077c-0.198,0.308-0.377,0.627-0.538,0.956
				c-7.032,14.867-18.669,27.07-33.186,34.799c-3.446,1.85-5.192,5.806-4.238,9.599c0.954,3.793,4.364,6.452,8.275,6.452
				c1.406,0.002,2.791-0.347,4.028-1.016c15.264-8.237,27.929-20.565,36.574-35.601c15.337,6.877,26.312,20.857,29.352,37.388
				C496.92,305.966,491.638,322.936,479.751,334.82z"/>
			<path d="M332.619,221.848c-4.713,0-8.533,3.82-8.533,8.533s3.821,8.533,8.533,8.533v83.627
				c-0.051,3.217-2.176,79.548-81.604,133.692c-2.612,1.677-4.108,4.641-3.904,7.739c0.203,3.098,2.073,5.841,4.882,7.163
				c2.809,1.322,6.115,1.013,8.631-0.805c86.656-59.042,89.003-143.949,89.062-147.669v-83.746
				C349.686,229.489,342.045,221.848,332.619,221.848z"/>
			<path d="M179.019,322.66v-83.746h93.867c4.713,0,8.533-3.82,8.533-8.533s-3.821-8.533-8.533-8.533h-93.867
				c-9.426,0-17.067,7.641-17.067,17.067v83.746c2.396,34.912,14.81,68.392,35.755,96.427c2.766,3.817,8.104,4.669,11.921,1.903
				s4.669-8.104,1.903-11.921C192.748,383.916,181.476,353.956,179.019,322.66z"/>
			<path d="M313.052,283.014c-3.332-3.331-8.734-3.331-12.066,0l-63.3,63.3l-9.967-9.967c-3.348-3.234-8.671-3.188-11.962,0.104
				c-3.292,3.292-3.338,8.614-0.104,11.962l16,16c3.332,3.331,8.734,3.331,12.066,0l69.333-69.333
				C316.384,291.748,316.384,286.347,313.052,283.014z"/>
		</g>
	</g>
</g>
<g>
</g>
<g>
</g>
<g>
</g>
<g>
</g>
<g>
</g>
<g>
</g>
<g>
</g>
<g>
</g>
<g>
</g>
<g>
</g>
<g>
</g>
<g>
</g>
<g>
</g>
<g>
</g>
<g>
</g>
</svg>
