<?xml version="1.0" encoding="iso-8859-1"?>
<!-- Generator: Adobe Illustrator 21.0.0, SVG Export Plug-In . SVG Version: 6.00 Build 0)  -->
<svg version="1.1" id="Capa_1" xmlns="http://www.w3.org/2000/svg" xmlns:xlink="http://www.w3.org/1999/xlink" x="0px" y="0px"
	 viewBox="0 0 505.141 505.141" style="enable-background:new 0 0 505.141 505.141;" xml:space="preserve">
<g>
	<g>
		<g>
			<path d="M417.362,299.297c-9.376-47.128-50.738-81.07-98.79-81.067c-26.727-0.074-52.373,10.55-71.218,29.503
				c-33.977,33.979-39.219,87.227-12.522,127.179c26.698,39.953,77.9,55.482,122.293,37.092
				C401.518,393.613,426.739,346.425,417.362,299.297z M334.948,401.273c-39.273,7.813-78.597-13.206-93.921-50.2
				c-15.324-36.995-2.382-79.663,30.913-101.91c33.294-22.247,77.667-17.877,105.982,10.437
				c15.791,15.707,24.644,37.078,24.584,59.35C402.507,358.994,374.222,393.461,334.948,401.273z"/>
			<path d="M496.597,461.413l-66.98-66.971c36.263-53.306,29.512-124.863-16.082-170.446c-8.101-8.042-17.188-15.025-27.044-20.782
				V83.934C386.492,36.872,301.718,0,193.443,0S0.394,36.872,0.394,83.934v302.164c0,47.062,84.774,83.934,193.049,83.934
				c40.05,0.524,79.933-5.254,118.188-17.123c2.308,0.117,4.608,0.336,6.941,0.336c26.925,0.054,53.237-8.042,75.474-23.225
				l67.013,67.013c6.269,6.795,15.757,9.608,24.716,7.328c8.959-2.28,15.949-9.286,18.208-18.251S503.407,467.666,496.597,461.413z
				 M193.443,16.787c105.438,0,176.262,34.724,176.262,67.148c0,32.424-70.824,67.148-176.262,67.148S17.181,116.358,17.181,83.934
				C17.181,51.511,88.004,16.787,193.443,16.787z M17.181,118.708c29.872,29.234,96.709,49.16,176.262,49.16
				s146.39-19.926,176.262-49.16v76.019c-16.221-6.67-33.594-10.092-51.133-10.072c-47.927-0.144-92.242,25.452-116.065,67.038
				c-3.005,0.05-5.984,0.109-9.065,0.109c-51.401,0-100.268-8.897-134.11-24.433c-26.784-12.129-42.152-27.698-42.152-42.714
				V118.708z M17.181,219.564c10.286,9.699,22.199,17.512,35.194,23.082c35.916,16.493,87.351,25.944,141.069,25.944h0.655
				c-10.669,26.662-12.56,56.032-5.397,83.842c-49.647-0.537-96.575-9.233-129.368-24.341
				c-26.784-12.129-42.152-27.698-42.152-42.714V219.564z M193.443,453.246c-105.438,0-176.262-34.724-176.262-67.148v-65.813
				c10.286,9.699,22.199,17.512,35.194,23.082c35.916,16.493,87.351,25.944,141.069,25.944h0.646
				c14.395,35.671,43.446,63.422,79.738,76.17C247.354,450.72,220.428,453.32,193.443,453.246z M341.489,434.194
				c-54.983,10.933-110.033-18.496-131.483-70.29c-21.45-51.794-3.326-111.527,43.288-142.67
				c46.614-31.143,108.735-25.021,148.374,14.622c22.109,21.99,34.501,51.912,34.413,83.095
				C436.076,375.011,396.473,423.261,341.489,434.194z M484.762,485.166l-0.067-0.025c-3.27,3.232-8.531,3.232-11.801,0
				l-65.586-65.586c2.098-1.855,4.197-3.651,6.228-5.649c2.031-1.998,3.769-4.104,5.615-6.194l65.612,65.612
				c1.597,1.556,2.498,3.692,2.498,5.922S486.36,483.61,484.762,485.166z"/>
			<path d="M277.377,293.771c2.226,0,4.36-0.885,5.934-2.459l16.787-16.787c3.181-3.293,3.135-8.528-0.102-11.766
				c-3.238-3.238-8.473-3.283-11.766-0.102l-16.787,16.787c-2.4,2.401-3.117,6.01-1.819,9.146
				C270.923,291.725,273.983,293.77,277.377,293.771z"/>
			<path d="M330.197,271.049l-58.754,58.754c-3.277,3.278-3.277,8.591,0,11.868c3.278,3.277,8.591,3.277,11.868,0l58.754-58.754
				c3.181-3.293,3.135-8.529-0.102-11.766C338.726,267.914,333.491,267.869,330.197,271.049z"/>
			<path d="M36.401,182.222c1.609,1.532,3.737,2.402,5.959,2.434c1.097-0.013,2.18-0.241,3.19-0.672
				c1.017-0.426,1.953-1.022,2.77-1.763c0.741-0.816,1.337-1.753,1.763-2.77c0.43-1.009,0.658-2.093,0.671-3.189
				c-0.033-2.222-0.902-4.35-2.434-5.959c-0.816-0.741-1.753-1.337-2.77-1.763c-3.13-1.275-6.717-0.584-9.149,1.763
				c-1.532,1.609-2.401,3.737-2.434,5.959c0.013,1.097,0.241,2.18,0.671,3.189C35.065,180.469,35.661,181.405,36.401,182.222z"/>
			<path d="M36.401,282.943c1.609,1.532,3.737,2.402,5.959,2.434c1.097-0.013,2.18-0.241,3.19-0.672
				c1.017-0.426,1.953-1.022,2.77-1.763c0.741-0.816,1.337-1.753,1.763-2.77c0.43-1.009,0.658-2.093,0.671-3.19
				c-0.033-2.222-0.902-4.35-2.434-5.959c-0.816-0.741-1.753-1.337-2.77-1.763c-3.13-1.275-6.717-0.584-9.149,1.763
				c-1.532,1.609-2.401,3.737-2.434,5.959c0.013,1.097,0.241,2.18,0.671,3.19C35.065,281.19,35.661,282.127,36.401,282.943z"/>
			<path d="M45.55,369.983c-3.13-1.275-6.717-0.584-9.149,1.763c-1.532,1.609-2.401,3.737-2.434,5.959
				c0.013,1.097,0.241,2.18,0.671,3.19c0.426,1.017,1.022,1.953,1.763,2.77c1.609,1.532,3.737,2.402,5.959,2.434
				c1.097-0.013,2.18-0.241,3.19-0.671c1.017-0.426,1.953-1.022,2.77-1.763c0.741-0.816,1.337-1.753,1.763-2.77
				c0.43-1.009,0.658-2.093,0.671-3.19c-0.033-2.222-0.902-4.35-2.434-5.959C47.504,371.005,46.567,370.409,45.55,369.983z"/>
			<path d="M75.935,75.541c1.069-0.001,2.128-0.203,3.122-0.596l41.967-16.787c4.306-1.724,6.4-6.613,4.675-10.92
				c-1.724-4.306-6.613-6.4-10.92-4.675L72.812,59.35c-3.743,1.491-5.898,5.431-5.135,9.387S71.906,75.549,75.935,75.541z"/>
			<path d="M68.182,97.492c-0.856,2.056-0.861,4.368-0.012,6.427c0.847,2.06,2.479,3.698,4.535,4.555
				c2.056,0.856,4.368,0.861,6.427,0.011l142.689-58.754c4.288-1.766,6.332-6.674,4.566-10.962
				c-1.766-4.288-6.674-6.332-10.962-4.566L72.737,92.957C70.677,93.805,69.039,95.436,68.182,97.492z"/>
		</g>
	</g>
</g>
<g>
</g>
<g>
</g>
<g>
</g>
<g>
</g>
<g>
</g>
<g>
</g>
<g>
</g>
<g>
</g>
<g>
</g>
<g>
</g>
<g>
</g>
<g>
</g>
<g>
</g>
<g>
</g>
<g>
</g>
</svg>
