<svg height="512pt" viewBox="0 0 512 512.09968" width="512pt" xmlns="http://www.w3.org/2000/svg"><path d="m248.121094 197.226562c-14.765625 3.078126-26.246094 14.714844-29.117188 29.523438-2.003906 11.164062 1.265625 22.628906 8.859375 31.054688 1.585938 1.667968 2.515625 3.851562 2.621094 6.152343v34.816407c.007813 9.382812 7.613281 16.988281 16.996094 16.996093h17.203125c9.386718-.007812 16.988281-7.613281 17-16.996093v-34.988282c.117187-2.269531 1.050781-4.421875 2.628906-6.058594 6.003906-6.609374 9.382812-15.1875 9.496094-24.113281-.011719-11.148437-5.050782-21.691406-13.714844-28.707031-8.957031-7.242188-20.703125-10.0625-31.972656-7.679688zm23.414062 49.261719c-4.332031 4.734375-6.792968 10.882813-6.917968 17.296875l.066406 34.886719-17.132813.101563v-34.859376c-.097656-6.453124-2.542969-12.652343-6.878906-17.433593-4.128906-4.488281-5.933594-10.640625-4.890625-16.648438 1.625-7.964843 7.808594-14.210937 15.753906-15.921875 1.511719-.3125 3.054688-.46875 4.597656-.472656 4.804688-.015625 9.464844 1.640625 13.175782 4.6875 4.695312 3.785156 7.425781 9.492188 7.433594 15.519531-.121094 4.757813-1.972657 9.308594-5.207032 12.800781zm0 0"/><path d="m324.347656 162.238281h-136.53125c-14.140625 0-25.601562 11.460938-25.601562 25.601563v136.53125c0 14.140625 11.460937 25.601562 25.601562 25.601562h136.53125c14.140625 0 25.601563-11.460937 25.601563-25.601562v-136.53125c0-14.140625-11.460938-25.601563-25.601563-25.601563zm8.535156 162.132813c0 4.714844-3.820312 8.535156-8.535156 8.535156h-136.53125c-4.714844 0-8.535156-3.820312-8.535156-8.535156v-136.53125c0-4.714844 3.820312-8.535156 8.535156-8.535156h136.53125c4.714844 0 8.535156 3.820312 8.535156 8.535156zm0 0"/><path d="m468.375 214.472656c9.996094 10 26.207031 10.003906 36.207031.007813 10-9.996094 10.003907-26.207031.007813-36.207031-7.777344-7.382813-19.265625-9.292969-29.011719-4.820313-.050781-.050781-.0625-.121094-.113281-.171875l-36.648438-36.640625 13.125-13.125c5.742188-5.710937 8.960938-13.480469 8.941406-21.582031v-52.199219c11.753907-4.15625 18.804688-16.175781 16.699219-28.464844-2.109375-12.289062-12.765625-21.269531-25.234375-21.269531-12.464844 0-23.121094 8.980469-25.230468 21.269531-2.109376 12.289063 4.945312 24.308594 16.699218 28.464844v52.199219c.007813 3.570312-1.410156 6.996094-3.941406 9.515625l-55.792969 55.789062v-13.53125c0-14.140625-11.460937-25.601562-25.597656-25.601562h-94.296875v-25.351563l23.597656-23.59375c3.414063 1.664063 7.164063 2.539063 10.964844 2.558594 14.136719 0 25.597656-11.460938 25.597656-25.601562 0-14.136719-11.460937-25.597657-25.597656-25.597657-14.140625 0-25.601562 11.460938-25.601562 25.597657.015624 3.804687.890624 7.550781 2.5625 10.96875l-19.628907 19.625-19.625-19.625c1.667969-3.414063 2.542969-7.160157 2.558594-10.957032 0-14.140625-11.460937-25.601562-25.597656-25.601562-14.140625 0-25.601563 11.460937-25.601563 25.601562 0 14.136719 11.460938 25.597656 25.601563 25.597656 3.800781-.019531 7.546875-.894531 10.964843-2.558593l22.738282 22.742187v26.195313h-93.4375c-14.140625 0-25.601563 11.460937-25.601563 25.601562v13.53125l-55.789062-55.789062c-2.53125-2.519531-3.953125-5.945313-3.945313-9.515625v-52.199219c11.757813-4.15625 18.808594-16.175781 16.699219-28.464844-2.109375-12.289062-12.761719-21.269531-25.230469-21.269531s-23.125 8.980469-25.230468 21.269531c-2.109376 12.289063 4.941406 24.308594 16.695312 28.464844v52.199219c-.019531 8.101562 3.199219 15.871094 8.945312 21.582031l13.125 13.125-36.636718 36.632813c-.050782.050781-.058594.117187-.109375.171874-9.746094-4.472656-21.234375-2.5625-29.011719 4.820313-10 9.996094-10 26.207031 0 36.207031 9.996094 9.996094 26.207031 9.996094 36.207031 0 7.710938-7.640625 9.695313-19.34375 4.929688-29.097656h.070312l36.617188-36.667969 42.664062 42.664063v81.800781h-35.6875c-1.25-3.59375-3.289062-6.863281-5.972656-9.566406-10.132813-9.667969-26.074219-9.667969-36.207031 0-7.492188 7.421875-9.667969 18.679687-5.484375 28.355469 4.1875 9.679687 13.882812 15.800781 24.421875 15.421874 10.539062-.382812 19.765625-7.1875 23.242187-17.144531h35.6875v39.136719l-46.199219 46.199219h-32.152343c-1.25-3.597657-3.292969-6.867188-5.972657-9.566407-10.132812-9.671874-26.074218-9.671874-36.207031 0-4.804687 4.800782-7.4999998 11.3125-7.4999998 18.101563 0 6.792969 2.6953128 13.304687 7.4999998 18.105469 6.179688 6.273437 15.164063 8.90625 23.753907 6.957031 8.589843-1.949219 15.558593-8.203125 18.425781-16.53125h27.152343v69.972656c-3.589843 1.160157-6.867187 3.140625-9.566406 5.777344-4.800781 4.800781-7.5 11.3125-7.5 18.101563 0 6.792968 2.699219 13.304687 7.5 18.105468 10 9.996094 26.210938 9.996094 36.207032 0 10-10 10-26.210937 0-36.207031-2.703126-2.640625-5.980469-4.617187-9.574219-5.777344v-74.972656l34.132812-34.136719v47.667969c0 9.425781 7.640625 17.066406 17.066407 17.066406h42.667968c9.425782 0 17.066406-7.640625 17.066406-17.066406v-17.066406h42.667969v52.90625c-3.59375 1.164062-6.867187 3.140625-9.566406 5.777343-6.46875 6.46875-9 15.894532-6.632813 24.730469 2.363282 8.835938 9.265626 15.738281 18.097657 18.105469 8.835937 2.371094 18.261719-.152344 24.734375-6.621094 9.992187-9.996094 9.992187-26.199218 0-36.195312-2.699219-2.644532-5.972656-4.628906-9.566406-5.796875v-52.90625h42.664062v17.066406c0 9.425781 7.640625 17.066406 17.066406 17.066406h42.667969c9.425781 0 17.066406-7.640625 17.066406-17.066406v-47.667969l34.132813 34.136719v74.972656c-3.589844 1.160157-6.863282 3.140625-9.566406 5.777344-10 9.996094-10.003907 26.207031-.007813 36.207031s26.207031 10.003906 36.207031.007813c9.996094-9.996094 9.996094-26.203125 0-36.199219-2.699218-2.644531-5.972656-4.625-9.566406-5.792969v-69.972656h27.15625c2.90625 8.28125 9.867188 14.488281 18.425781 16.429687 8.558594 1.945313 17.519531-.644531 23.71875-6.855468 9.992188-9.996094 9.992188-26.203125 0-36.199219-10.132812-9.667969-26.074219-9.667969-36.207031 0-2.683594 2.703125-4.722656 5.976563-5.972656 9.574219h-32.121094l-46.199219-46.214844v-39.136719h35.6875c3.464844 9.972657 12.695313 16.796875 23.246094 17.179688 10.550781.386719 20.257813-5.746094 24.441406-15.4375 4.183594-9.695313 1.984375-20.960938-5.53125-28.375-10.136719-9.65625-26.066406-9.65625-36.199219 0-2.683593 2.707031-4.726562 5.976562-5.972656 9.574219h-35.671875v-81.808594l42.667969-42.664063 36.632812 36.632813h.070313c-4.765625 9.75-2.785156 21.449218 4.921875 29.089844zm-16.027344-197.300781c4.714844 0 8.535156 3.820313 8.535156 8.535156 0 4.710938-3.820312 8.53125-8.535156 8.53125-4.710937 0-8.53125-3.820312-8.53125-8.53125 0-4.714843 3.820313-8.535156 8.53125-8.535156zm-153.597656 30.421875c4.710938 0 8.53125 3.820312 8.53125 8.535156 0 4.710938-3.820312 8.53125-8.53125 8.53125-4.714844 0-8.535156-3.820312-8.535156-8.53125 0-4.714844 3.820312-8.535156 8.535156-8.535156zm-93.867188 8.535156c0-4.714844 3.820313-8.535156 8.535157-8.535156 4.710937 0 8.53125 3.820312 8.53125 8.535156 0 4.710938-3.820313 8.53125-8.53125 8.53125-4.714844 0-8.535157-3.820312-8.535157-8.53125zm-145.066406-38.957031c4.710938 0 8.53125 3.820313 8.53125 8.535156 0 4.710938-3.820312 8.53125-8.53125 8.53125-4.714844 0-8.535156-3.820312-8.535156-8.53125 0-4.714843 3.820312-8.535156 8.535156-8.535156zm-28.101562 185.234375c-3.375 3.226562-8.691406 3.226562-12.066406 0-3.328126-3.332031-3.328126-8.734375 0-12.066406 2.144531-2.21875 5.316406-3.109375 8.300781-2.328125s5.3125 3.113281 6.09375 6.09375c.78125 2.984375-.109375 6.15625-2.328125 8.300781zm42.667968 85.332031c-3.375 3.226563-8.691406 3.226563-12.066406 0-3.332031-3.332031-3.332031-8.734375 0-12.066406 2.140625-2.21875 5.316406-3.105469 8.296875-2.324219 2.984375.777344 5.316407 3.109375 6.097657 6.09375s-.109376 6.15625-2.328126 8.296875zm-42.667968 102.402344c-3.375 3.226563-8.691406 3.226563-12.066406 0-2.441407-2.441406-3.171876-6.113281-1.851563-9.300781 1.324219-3.191406 4.433594-5.269532 7.886719-5.269532 3.449218 0 6.5625 2.078126 7.882812 5.269532 1.320313 3.1875.589844 6.859375-1.851562 9.300781zm59.734375 102.398437c-3.375 3.226563-8.691407 3.226563-12.066407 0-2.441406-2.441406-3.171874-6.109374-1.851562-9.300781 1.320312-3.1875 4.433594-5.265625 7.886719-5.265625 3.449219 0 6.5625 2.078125 7.882812 5.265625 1.320313 3.191407.589844 6.859375-1.851562 9.300781zm170.667969-25.601562c-3.375 3.230469-8.691407 3.230469-12.066407 0-2.441406-2.4375-3.171875-6.109375-1.851562-9.296875 1.320312-3.191406 4.433593-5.269531 7.882812-5.269531 3.453125 0 6.5625 2.078125 7.882813 5.269531 1.324218 3.1875.59375 6.859375-1.847656 9.296875zm170.664062 25.601562c-3.375 3.226563-8.691406 3.226563-12.066406 0-2.441406-2.441406-3.171875-6.109374-1.847656-9.300781 1.320312-3.1875 4.429687-5.265625 7.882812-5.265625 3.449219 0 6.5625 2.078125 7.882812 5.265625 1.320313 3.191407.589844 6.859375-1.851562 9.300781zm47.667969-114.464843c2.144531-2.21875 5.316406-3.109375 8.300781-2.328125 2.980469.78125 5.3125 3.109375 6.09375 6.09375s-.109375 6.15625-2.328125 8.300781c-3.375 3.226563-8.691406 3.226563-12.066406 0-3.332031-3.332031-3.332031-8.734375 0-12.066406zm-42.667969-102.402344c3.335938-3.332031 8.734375-3.332031 12.066406 0 3.332032 3.332031 3.332032 8.734375 0 12.066406-3.375 3.226563-8.691406 3.226563-12.066406 0-3.328125-3.332031-3.328125-8.734375 0-12.066406zm-249.964844 125.5h-42.667968v-18.636719c2.734374 1.011719 5.621093 1.542969 8.535156 1.570313h34.132812zm136.53125 0v-17.066406h34.136719c2.910156-.027344 5.800781-.558594 8.53125-1.570313v18.636719zm34.136719-34.132813h-204.800781c-4.714844 0-8.535156-3.820312-8.535156-8.53125v-204.800781c0-4.714843 3.820312-8.535156 8.535156-8.535156h204.800781c4.710937 0 8.53125 3.820313 8.53125 8.535156v204.800781c0 4.710938-3.820313 8.53125-8.53125 8.53125zm128-179.199218c2.261719-.007813 4.433594.894531 6.03125 2.5 3.332031 3.332031 3.332031 8.734375 0 12.066406-3.375 3.226562-8.691406 3.226562-12.066406 0-2.4375-2.441406-3.167969-6.109375-1.847657-9.300781 1.320313-3.1875 4.429688-5.265625 7.882813-5.265625zm0 0"/></svg>