<?xml version="1.0" encoding="iso-8859-1"?>
<!-- Generator: Adobe Illustrator 19.0.0, SVG Export Plug-In . SVG Version: 6.00 Build 0)  -->
<svg version="1.1" id="Capa_1" xmlns="http://www.w3.org/2000/svg" xmlns:xlink="http://www.w3.org/1999/xlink" x="0px" y="0px"
	 viewBox="0 0 512 512" style="enable-background:new 0 0 512 512;" xml:space="preserve">
<g>
	<g>
		<g>
			<path d="M247.467,460.8h-25.6c-4.713,0-8.533,3.82-8.533,8.533s3.82,8.533,8.533,8.533h25.6c4.713,0,8.533-3.82,8.533-8.533
				S252.18,460.8,247.467,460.8z"/>
			<path d="M494.933,307.2H486.4v-68.267c-0.072-45.219-32.342-83.975-76.8-92.237V33.792C409.581,15.137,394.463,0.019,375.808,0
				H136.192c-18.655,0.019-33.773,15.137-33.792,33.792v128.341H25.6c-5.068-0.004-10.021,1.506-14.225,4.335
				c-1.797,0.269-3.456,1.117-4.727,2.415c-1.068,1.198-1.765,2.68-2.005,4.267c-3.008,4.269-4.628,9.361-4.642,14.583v136.533
				c0.005,5.237,1.626,10.345,4.642,14.626c0.241,1.587,0.937,3.069,2.005,4.267c1.256,1.276,2.89,2.111,4.659,2.381
				c4.225,2.837,9.204,4.344,14.293,4.326h76.8v128.341c0.019,18.655,15.137,33.773,33.792,33.792h316.075
				c32.974-0.038,59.696-26.759,59.733-59.733v-128C512,314.841,504.359,307.2,494.933,307.2z M469.333,238.933V307.2h-153.6
				v-68.267c0-42.415,34.385-76.8,76.8-76.8S469.333,196.518,469.333,238.933z M119.467,33.792
				c0.009-9.233,7.492-16.716,16.725-16.725h239.616c9.233,0.009,16.716,7.492,16.725,16.725v34.475H119.467V33.792z
				 M119.467,85.333h273.067v59.733c-51.816,0.061-93.805,42.051-93.867,93.867V307.2h-8.533c-9.426,0-17.067,7.641-17.067,17.067
				v102.4h-153.6v-76.8h102.4c14.138,0,25.6-11.462,25.6-25.6V187.733c0-14.138-11.461-25.6-25.6-25.6h-102.4V85.333z
				 M157.56,256.085l72.841-68.352v136.619L157.56,256.085z M214.502,179.2l-88.277,82.773c-2.202,2.051-5.615,2.051-7.817,0
				L30.123,179.2H214.502z M17.067,321.647V190.353L87.04,256L17.067,321.647z M30.123,332.8l69.419-65.092l7.202,6.758
				c8.779,8.168,22.376,8.168,31.155,0l7.185-6.741l69.41,65.075H30.123z M136.192,494.933c-9.233-0.009-16.716-7.492-16.725-16.725
				v-34.475h153.6v8.533c-0.002,16.069,6.492,31.457,18.005,42.667H136.192z M494.933,341.333h-25.6
				c-4.713,0-8.533,3.82-8.533,8.533s3.82,8.533,8.533,8.533h25.6v17.067h-25.6c-4.713,0-8.533,3.82-8.533,8.533
				s3.82,8.533,8.533,8.533h25.6V409.6h-25.6c-4.713,0-8.533,3.82-8.533,8.533s3.82,8.533,8.533,8.533h25.6v17.067h-25.6
				c-4.713,0-8.533,3.821-8.533,8.533c0,4.713,3.82,8.533,8.533,8.533h24.747c-4.083,19.852-21.546,34.108-41.813,34.133H332.8
				c-20.267-0.026-37.731-14.281-41.813-34.133h24.747c4.713,0,8.533-3.821,8.533-8.533c0-4.713-3.82-8.533-8.533-8.533h-25.6
				v-17.067h25.6c4.713,0,8.533-3.82,8.533-8.533s-3.82-8.533-8.533-8.533h-25.6v-17.067h25.6c4.713,0,8.533-3.82,8.533-8.533
				s-3.82-8.533-8.533-8.533h-25.6V358.4h25.6c4.713,0,8.533-3.82,8.533-8.533s-3.82-8.533-8.533-8.533h-25.6v-17.067h204.8V341.333
				z"/>
			<path d="M384,416.563V435.2c0,4.713,3.821,8.533,8.533,8.533c4.713,0,8.533-3.82,8.533-8.533v-18.637
				c11.747-4.137,18.796-16.144,16.686-28.418c-2.11-12.274-12.765-21.236-25.219-21.212c-12.454-0.024-23.109,8.939-25.219,21.212
				C365.204,400.419,372.253,412.426,384,416.563z M392.533,384c4.713,0,8.533,3.821,8.533,8.533c0,4.713-3.821,8.533-8.533,8.533
				c-4.713,0-8.533-3.821-8.533-8.533C384,387.821,387.821,384,392.533,384z"/>
			<path d="M153.6,102.4h-8.533c-4.713,0-8.533,3.82-8.533,8.533s3.82,8.533,8.533,8.533h8.533c4.713,0,8.533-3.82,8.533-8.533
				S158.313,102.4,153.6,102.4z"/>
			<path d="M281.6,110.933c0-4.713-3.821-8.533-8.533-8.533h-85.333c-4.713,0-8.533,3.82-8.533,8.533s3.82,8.533,8.533,8.533h85.333
				C277.779,119.467,281.6,115.646,281.6,110.933z"/>
		</g>
	</g>
</g>
<g>
</g>
<g>
</g>
<g>
</g>
<g>
</g>
<g>
</g>
<g>
</g>
<g>
</g>
<g>
</g>
<g>
</g>
<g>
</g>
<g>
</g>
<g>
</g>
<g>
</g>
<g>
</g>
<g>
</g>
</svg>
