<?xml version="1.0" encoding="iso-8859-1"?>
<!-- Generator: Adobe Illustrator 19.0.0, SVG Export Plug-In . SVG Version: 6.00 Build 0)  -->
<svg version="1.1" id="Capa_1" xmlns="http://www.w3.org/2000/svg" xmlns:xlink="http://www.w3.org/1999/xlink" x="0px" y="0px"
	 viewBox="0 0 512 512" style="enable-background:new 0 0 512 512;" xml:space="preserve">
<g>
	<g>
		<g>
			<path d="M472.653,298.946c24.472-69.308,29.018-144.089,13.124-215.851c-1.205-4.554-5.873-7.27-10.428-6.067
				C332.8,114.524,273.468,22.475,264.26,6.202c-0.246-0.788-0.59-1.542-1.024-2.244c-1.677-2.389-4.39-3.838-7.308-3.902
				s-5.692,1.264-7.472,3.578c-0.703,1.097-1.155,2.335-1.323,3.627c-11,18.816-70.758,106.53-210.441,69.769
				c-4.555-1.203-9.222,1.513-10.428,6.067C10.363,154.871,14.91,229.668,39.39,298.989C17.241,300.658,0.093,319.068,0,341.28
				v68.267c0.028,23.552,19.114,42.638,42.667,42.667h108.979c30.524,23.593,63.942,43.183,99.439,58.291
				c1.402,0.944,3.054,1.446,4.745,1.442h0.341c1.69,0.004,3.343-0.498,4.745-1.442c35.497-15.109,68.915-34.698,99.439-58.291
				h108.979c23.552-0.028,42.638-19.114,42.667-42.667V341.28C511.931,319.067,494.802,300.637,472.653,298.946z M40.96,95.674
				C170.197,125.941,234.786,55.482,256,24.992c21.214,30.49,85.845,100.932,215.04,70.682
				c12.77,67.911,7.037,138.006-16.597,202.94h-18.389c0.236-0.333,0.444-0.684,0.623-1.05
				c21.057-54.988,28.483-114.257,21.641-172.74c-0.26-2.298-1.441-4.392-3.273-5.802c-1.832-1.411-4.158-2.018-6.446-1.681
				c-12.779,1.892-25.678,2.861-38.596,2.901c-55.652,1.038-109.225-21.136-147.866-61.201c-1.608-1.663-3.822-2.603-6.135-2.603
				c-2.313,0-4.528,0.939-6.135,2.603c-38.628,40.065-92.187,62.247-147.831,61.227c-12.919-0.036-25.818-1.006-38.596-2.901
				c-2.288-0.336-4.614,0.271-6.446,1.681s-3.013,3.505-3.273,5.802c-6.836,58.474,0.589,117.734,21.641,172.715
				c0.204,0.366,0.435,0.717,0.691,1.05H57.557C33.922,233.68,28.19,163.584,40.96,95.674z M421.53,298.639H90.513
				c1.39-2.243,1.643-5.009,0.683-7.467h0.034c-19.037-49.586-26.339-102.906-21.333-155.784c10.692,1.259,21.448,1.9,32.213,1.92
				c57.243,0.986,112.557-20.69,153.89-60.305c41.348,39.643,96.693,61.33,153.967,60.331c10.766-0.024,21.521-0.665,32.213-1.92
				c5.003,52.879-2.298,106.198-21.333,155.785C419.895,293.648,420.148,296.403,421.53,298.639z M256,494.027
				c-26.505-11.478-51.843-25.481-75.665-41.813h151.33C307.843,468.546,282.505,482.548,256,494.027z M494.933,409.547
				c0,14.138-11.461,25.6-25.6,25.6H42.667c-14.138,0-25.6-11.461-25.6-25.6V341.28c0-14.138,11.462-25.6,25.6-25.6h426.667
				c14.138,0,25.6,11.462,25.6,25.6V409.547z"/>
			<path d="M134.033,343.78c-3.332-3.331-8.734-3.331-12.066,0L102.4,363.347L82.833,343.78c-3.348-3.234-8.671-3.188-11.962,0.104
				c-3.292,3.292-3.338,8.614-0.104,11.962l19.567,19.567L70.767,394.98c-2.218,2.143-3.108,5.315-2.327,8.299
				c0.781,2.984,3.111,5.314,6.094,6.094c2.983,0.781,6.156-0.109,8.299-2.327L102.4,387.48l19.567,19.567
				c3.348,3.234,8.671,3.188,11.962-0.104c3.292-3.292,3.338-8.614,0.104-11.962l-19.567-19.567l19.567-19.567
				C137.364,352.514,137.364,347.113,134.033,343.78z"/>
			<path d="M236.433,343.78c-3.332-3.331-8.734-3.331-12.066,0L204.8,363.347l-19.567-19.567c-3.348-3.234-8.671-3.188-11.962,0.104
				c-3.292,3.292-3.338,8.614-0.104,11.962l19.567,19.567l-19.567,19.567c-2.218,2.143-3.108,5.315-2.327,8.299
				c0.781,2.984,3.111,5.314,6.094,6.094c2.984,0.781,6.156-0.109,8.299-2.327L204.8,387.48l19.567,19.567
				c3.348,3.234,8.671,3.188,11.962-0.104c3.292-3.292,3.338-8.614,0.104-11.962l-19.567-19.567l19.567-19.567
				C239.764,352.514,239.764,347.113,236.433,343.78z"/>
			<path d="M338.833,343.78c-3.332-3.331-8.734-3.331-12.066,0L307.2,363.347l-19.567-19.567c-3.348-3.234-8.671-3.188-11.962,0.104
				c-3.292,3.292-3.338,8.614-0.104,11.962l19.567,19.567l-19.567,19.567c-2.218,2.143-3.108,5.315-2.327,8.299
				c0.781,2.984,3.111,5.314,6.094,6.094c2.984,0.781,6.156-0.109,8.299-2.327L307.2,387.48l19.567,19.567
				c3.348,3.234,8.671,3.188,11.962-0.104c3.292-3.292,3.338-8.614,0.104-11.962l-19.567-19.567l19.567-19.567
				C342.164,352.514,342.164,347.113,338.833,343.78z"/>
			<path d="M441.233,343.78c-3.332-3.331-8.734-3.331-12.066,0L409.6,363.347l-19.567-19.567c-3.348-3.234-8.671-3.188-11.962,0.104
				c-3.292,3.292-3.338,8.614-0.104,11.962l19.567,19.567l-19.567,19.567c-2.218,2.143-3.108,5.315-2.327,8.299
				c0.781,2.984,3.111,5.314,6.094,6.094c2.983,0.781,6.156-0.109,8.299-2.327L409.6,387.48l19.567,19.567
				c3.348,3.234,8.671,3.188,11.962-0.104c3.292-3.292,3.338-8.614,0.104-11.962l-19.567-19.567l19.567-19.567
				C444.564,352.514,444.564,347.113,441.233,343.78z"/>
		</g>
	</g>
</g>
<g>
</g>
<g>
</g>
<g>
</g>
<g>
</g>
<g>
</g>
<g>
</g>
<g>
</g>
<g>
</g>
<g>
</g>
<g>
</g>
<g>
</g>
<g>
</g>
<g>
</g>
<g>
</g>
<g>
</g>
</svg>
