<?xml version="1.0" encoding="iso-8859-1"?>
<!-- Generator: Adobe Illustrator 19.0.0, SVG Export Plug-In . SVG Version: 6.00 Build 0)  -->
<svg version="1.1" id="Capa_1" xmlns="http://www.w3.org/2000/svg" xmlns:xlink="http://www.w3.org/1999/xlink" x="0px" y="0px"
	 viewBox="0 0 511.999 511.999" style="enable-background:new 0 0 511.999 511.999;" xml:space="preserve">
<g>
	<g>
		<path d="M119.886,82.416c-4.199,0-7.603,3.404-7.603,7.603v10.541c0,4.199,3.404,7.603,7.603,7.603
			c4.199,0,7.603-3.404,7.603-7.603V90.019C127.489,85.82,124.085,82.416,119.886,82.416z"/>
	</g>
</g>
<g>
	<g>
		<path d="M147.291,82.416c-4.199,0-7.603,3.404-7.603,7.603v10.541c0,4.199,3.404,7.603,7.603,7.603
			c4.199,0,7.603-3.404,7.603-7.603V90.019C154.894,85.82,151.49,82.416,147.291,82.416z"/>
	</g>
</g>
<g>
	<g>
		<path d="M123.188,140.581c-9.448-0.505-15.955-4.099-19.891-10.985c-2.083-3.646-6.729-4.913-10.374-2.829
			c-3.646,2.083-4.913,6.728-2.829,10.374c6.518,11.405,17.68,17.845,32.283,18.625c0.138,0.007,0.275,0.011,0.412,0.011
			c4.012,0,7.37-3.143,7.586-7.198C130.598,144.386,127.381,140.805,123.188,140.581z"/>
	</g>
</g>
<g>
	<g>
		<path d="M49.542,92.686c4.773-1.833,10.191-0.682,13.805,2.932c0.044,0.044,0.098,0.097,0.143,0.14
			c1.551,1.477,3.58,2.178,5.575,2.088c15.415-0.171,28.052-12.132,29.301-27.27H148.7c34.723,0,62.972-28.249,62.972-62.972
			c0-4.199-3.404-7.603-7.603-7.603H102.19C67.467-0.001,39.218,28.248,39.218,62.971c0,4.199,3.404,7.603,7.603,7.603
			c4.199,0,7.603-3.404,7.603-7.603c0-26.339,21.428-47.766,47.766-47.766h93.671c-3.652,22.738-23.41,40.162-47.161,40.162H90.864
			c-4.199,0-7.603,3.404-7.603,7.603v5.137c0,7.136-5.17,13.087-11.96,14.304c-7.695-5.886-18.003-7.456-27.192-3.928
			c-3.682,1.404-6.987,3.554-9.821,6.388c-5.322,5.315-8.252,12.384-8.252,19.907c0,7.523,2.931,14.592,8.249,19.903
			c1.895,1.895,4.005,3.485,6.306,4.757c6.569,32.975,35.916,57.343,69.952,57.343c39.336,0,71.339-31.998,71.339-71.329V79.616
			c0-4.199-3.404-7.603-7.603-7.603c-4.199,0-7.603,3.404-7.603,7.603v35.837c0,30.945-25.181,56.122-56.132,56.122
			c-27.91,0-51.811-20.815-55.594-48.417c-0.387-2.825-2.323-5.196-5.013-6.141c-1.851-0.651-3.5-1.69-4.903-3.092
			c-2.445-2.442-3.792-5.69-3.792-9.147c0-3.457,1.346-6.706,3.795-9.15C46.346,94.316,47.858,93.327,49.542,92.686z"/>
	</g>
</g>
<g>
	<g>
		<path d="M77.009,184.92c-3.8-1.787-8.328-0.156-10.116,3.643c-12.767,27.142-22.192,64.182-27.851,90.476
			c-0.884,4.106,1.728,8.15,5.833,9.033c0.539,0.117,1.078,0.171,1.607,0.171c3.506,0,6.658-2.439,7.426-6.005
			c5.492-25.519,14.59-61.361,26.745-87.202C82.44,191.237,80.808,186.708,77.009,184.92z"/>
	</g>
</g>
<g>
	<g>
		<path d="M236.973,70.269c-4.199,0-7.603,3.404-7.603,7.603v36.94c-2.66,5.953-14.457,30.903-35.338,54.908
			c-17.288,19.875-35.917,33.81-55.715,41.754c-0.555-4.514-1.049-8.901-1.477-13.095c-0.426-4.178-4.159-7.215-8.335-6.793
			c-4.178,0.426-7.219,4.157-6.793,8.335c0.317,3.11,0.936,8.828,1.893,16.309c-11.581,2.848-23.529,3.748-35.81,2.682
			c-4.184-0.366-7.869,2.735-8.232,6.919c-0.362,4.183,2.735,7.869,6.919,8.232c3.671,0.317,7.317,0.477,10.951,0.477
			c9.572,0,19.002-1.111,28.245-3.291c4.219,28.502,11.864,69.004,24.092,97.446c-7.238,2.848-19.637,7.021-34.085,8.925
			c-28.182,3.715-51.313-2.447-68.825-18.322c0.486-2.976,1.256-7.538,2.299-13.227c0.757-4.13-1.977-8.092-6.107-8.85
			s-8.093,1.976-8.85,6.107c-1.959,10.674-2.954,17.321-2.996,17.599c-0.356,2.383,0.44,4.794,2.144,6.498
			c6.652,6.652,14.121,12.066,22.297,16.228c0.068,0.167,0.133,0.335,0.213,0.499c0.365,0.746,35.95,75.617-8.048,156.614
			c-1.28,2.356-1.225,5.212,0.147,7.516c1.372,2.304,3.853,3.716,6.535,3.716h26.352c4.199,0,7.603-3.404,7.603-7.603
			s-3.404-7.603-7.603-7.603H66.831c19.395-41.725,19.964-80.81,16.7-107.139c-2.037-16.423-5.708-29.802-8.783-38.903
			c8.143,2.043,16.778,3.099,25.862,3.098c5.676,0,11.528-0.404,17.528-1.214c5.305-0.717,10.329-1.699,14.974-2.804
			c7.276,18.965,26.604,82.778-10.421,150.937c-1.28,2.356-1.225,5.212,0.147,7.516c1.372,2.304,3.853,3.716,6.535,3.716h26.352
			c4.199,0,7.603-3.404,7.603-7.603s-3.404-7.603-7.603-7.603H141.71c19.395-41.725,19.964-80.81,16.7-107.139
			c-2.463-19.863-7.316-35.267-10.614-44.041c9.285-3.134,15.113-6.013,15.547-6.23c1.804-0.902,3.175-2.484,3.813-4.396
			c0.638-1.913,0.489-4.001-0.413-5.805c-12.07-24.14-21.043-65.7-26.369-102.36c23.441-8.645,45.436-24.479,65.13-47.122
			c25.408-29.21,37.969-59.132,38.491-60.391c0.383-0.924,0.58-1.913,0.58-2.913V77.873
			C244.576,73.673,241.172,70.269,236.973,70.269z"/>
	</g>
</g>
<g>
	<g>
		<path d="M419.639,185.907c-2.069-3.651-6.711-4.932-10.363-2.86c-3.653,2.071-4.935,6.712-2.863,10.365
			c14.553,25.663,38.765,81.599,39.753,170.776c-15.388,4.198-64.032,14.777-127.427,2.031
			c8.428-25.579,34.064-106.441,42.957-169.505c0.587-4.158-2.308-8.005-6.467-8.591c-4.161-0.589-8.004,2.309-8.591,6.467
			c-0.46,3.264-0.969,6.58-1.517,9.934c-46.895-26.527-72.728-80.58-76.836-89.72V77.871c0-4.199-3.404-7.603-7.603-7.603
			c-4.199,0-7.603,3.404-7.603,7.603v38.523c0,1,0.197,1.989,0.58,2.913c1.224,2.951,29.857,70.67,88.65,100.984
			c-13.362,69.49-40.36,148.208-40.666,149.094c-0.704,2.04-0.507,4.283,0.54,6.169c1.048,1.887,2.848,3.239,4.95,3.721
			c13.58,3.108,26.549,5.191,38.77,6.494c-4.128,28.852-3.535,68.707,16.175,111.02h-14.004c-4.199,0-7.603,3.404-7.603,7.603
			c0,4.199,3.404,7.603,7.603,7.603h26.348c2.681,0,5.164-1.412,6.535-3.716c1.371-2.304,1.425-5.16,0.146-7.517
			c-23.521-43.292-24.309-84.703-20.012-113.74c6.491,0.383,12.738,0.562,18.696,0.562c5.398,0,10.558-0.144,15.479-0.391
			c-3.91,28.728-3.022,67.966,16.366,109.596h-14.015c-4.199,0-7.603,3.404-7.603,7.603c0,4.199,3.404,7.603,7.603,7.603h26.358
			c2.681,0,5.164-1.412,6.535-3.716c1.371-2.304,1.426-5.16,0.147-7.516c-23.796-43.808-24.327-85.677-19.859-114.754
			c27.468-2.833,44.199-8.537,45.514-8.997c3.049-1.068,5.091-3.946,5.091-7.177C461.402,273.877,435.236,213.41,419.639,185.907z"
			/>
	</g>
</g>
<g>
	<g>
		<path d="M363.051,82.416c-4.199,0-7.603,3.404-7.603,7.603v10.541c0,4.199,3.404,7.603,7.603,7.603s7.603-3.404,7.603-7.603
			V90.019C370.654,85.82,367.25,82.416,363.051,82.416z"/>
	</g>
</g>
<g>
	<g>
		<path d="M335.646,82.416c-4.199,0-7.603,3.404-7.603,7.603v10.541c0,4.199,3.404,7.603,7.603,7.603s7.603-3.404,7.603-7.603
			V90.019C343.249,85.82,339.845,82.416,335.646,82.416z"/>
	</g>
</g>
<g>
	<g>
		<path d="M390.013,126.766c-3.644-2.083-8.29-0.817-10.374,2.829c-3.935,6.887-10.442,10.48-19.891,10.985
			c-4.193,0.224-7.411,3.805-7.187,7.998c0.216,4.055,3.573,7.198,7.586,7.198c0.136,0,0.275-0.003,0.412-0.011
			c14.602-0.781,25.766-7.22,32.283-18.625C394.926,133.495,393.66,128.85,390.013,126.766z"/>
	</g>
</g>
<g>
	<g>
		<path d="M484.336,89.99c-4.175-29.603-14.115-51.104-30.388-65.731c-3.123-2.807-7.931-2.551-10.738,0.572
			c-2.807,3.122-2.55,7.93,0.574,10.737c13.501,12.136,21.842,30.631,25.495,56.545c7.269,51.545-13.83,101.494-27.053,126.68
			c-1.951,3.717-0.52,8.314,3.197,10.266c1.128,0.592,2.337,0.873,3.528,0.873c2.735,0,5.379-1.48,6.739-4.07
			C469.764,199.055,492.201,145.757,484.336,89.99z"/>
	</g>
</g>
<g>
	<g>
		<path d="M448.654,84.876c-2.837-2.837-6.142-4.987-9.808-6.385c-5.549-2.131-11.501-2.406-17.04-0.997v-5.702
			c0-2.463-1.207-4.77-3.217-6.195c-2.008-1.426-4.599-1.784-6.924-0.971c-1.412,0.495-34.86,11.761-57.58-17.747
			c-1.334-1.733-3.35-2.808-5.533-2.949c-2.179-0.142-4.321,0.664-5.868,2.211c-5.229,5.229-18.054,7.423-27.831,7.865
			c-0.949-6.72-1.009-17.07,5.187-25.163c6.903-9.015,20.082-13.586,39.171-13.586c23.396,0,47.874,0.723,67.431,9.364
			c3.841,1.697,8.33-0.041,10.028-3.882c1.697-3.841-0.042-8.33-3.882-10.028c-22.266-9.839-48.556-10.662-73.577-10.662
			c-24.072,0-41.313,6.577-51.245,19.548c-12.374,16.161-8.771,36.182-6.647,44.04c0.871,3.218,3.736,5.494,7.068,5.613
			c2.763,0.099,24.118,0.578,38.456-7.461C365.757,81.776,390.24,84.06,406.6,81.47v8.781c0,3.076,1.858,5.842,4.699,7.019
			c2.84,1.178,6.116,0.521,8.291-1.653c3.614-3.614,9.033-4.764,13.822-2.925c1.668,0.636,3.178,1.624,4.494,2.939
			c2.445,2.442,3.791,5.69,3.791,9.147c0,3.457-1.346,6.706-3.795,9.151c-1.4,1.4-3.048,2.439-4.898,3.089
			c-2.691,0.945-4.626,3.316-5.013,6.141c-3.783,27.602-27.684,48.415-55.594,48.415c-30.951,0-56.132-25.176-56.132-56.122V84.686
			c0-4.199-3.404-7.603-7.603-7.603c-4.199,0-7.603,3.404-7.603,7.603v30.768c0,39.33,32.003,71.329,71.339,71.329
			c34.037,0,63.383-24.367,69.952-57.342c2.3-1.27,4.41-2.861,6.303-4.755c5.322-5.314,8.252-12.384,8.252-19.907
			C456.903,97.257,453.972,90.187,448.654,84.876z"/>
	</g>
</g>
<g>
	<g>
		<path d="M404.338,225.537c-2.429-3.425-7.173-4.23-10.598-1.802c-3.424,2.429-4.233,7.173-1.806,10.6
			c0.082,0.116,8.259,11.701,15.549,25.77c11.999,23.157,11.86,33.707,10.709,37.934c-0.657,2.413-1.897,3.874-4.144,4.884
			c-9.141,4.113-15.296-0.591-24.58-8.607c-6.634-5.728-13.495-11.649-22.326-10.926c-5.55,0.456-10.553,3.442-15.293,9.127
			c-2.689,3.226-2.254,8.02,0.972,10.708c3.226,2.688,8.021,2.254,10.708-0.972c1.882-2.259,3.652-3.61,4.856-3.708
			c2.484-0.208,7.082,3.773,11.145,7.281c6.714,5.797,16.022,13.832,28.128,13.832c3.914,0,8.121-0.84,12.629-2.868
			c6.384-2.872,10.733-7.977,12.579-14.763C439.797,276.541,407.987,230.682,404.338,225.537z"/>
	</g>
</g>
<g>
	<g>
		<path d="M248.556,26.677c-4.199,0-7.603,3.404-7.603,7.603v10.138c0,4.199,3.404,7.603,7.603,7.603
			c4.199,0,7.603-3.404,7.603-7.603V34.281C256.16,30.081,252.755,26.677,248.556,26.677z"/>
	</g>
</g>
<g>
	<g>
		<path d="M288.239,41.807c-2.97-2.969-7.784-2.968-10.753,0l-5.069,5.069c-2.969,2.969-2.968,7.784,0,10.753
			c1.485,1.485,3.431,2.227,5.376,2.227s3.892-0.742,5.377-2.227l5.069-5.069C291.209,49.59,291.208,44.776,288.239,41.807z"/>
	</g>
</g>
<g>
	<g>
		<path d="M224.694,46.877l-5.069-5.069c-2.97-2.968-7.784-2.969-10.753,0c-2.968,2.967-2.968,7.782,0,10.752l5.069,5.069
			c1.485,1.484,3.431,2.227,5.377,2.227c1.945,0,3.892-0.742,5.376-2.226C227.664,54.66,227.664,49.846,224.694,46.877z"/>
	</g>
</g>
<g>
</g>
<g>
</g>
<g>
</g>
<g>
</g>
<g>
</g>
<g>
</g>
<g>
</g>
<g>
</g>
<g>
</g>
<g>
</g>
<g>
</g>
<g>
</g>
<g>
</g>
<g>
</g>
<g>
</g>
</svg>
