<svg height="503pt" viewBox="0 0 503.86837 503" width="503pt" xmlns="http://www.w3.org/2000/svg"><path d="m327.605469.433594c-34.253907-.011719-67.753907 10.019531-96.363281 28.855468l-38.851563-22.402343c-3.847656-2.175781-8.398437-2.75-12.664063-1.597657-4.296874 1.132813-7.957031 3.953126-10.136718 7.824219l-12.574219 21.796875c-9.339844-1.1875-18.792969-1.1875-28.132813 0l-12.523437-21.71875c-2.183594-3.90625-5.863281-6.761718-10.1875-7.90625-4.300781-1.160156-8.882813-.570312-12.746094 1.644532l-43.664062 25.199218c-3.851563 2.230469-6.660157 5.90625-7.796875 10.210938-1.140625 4.300781-.519532 8.882812 1.722656 12.730468l12.566406 21.785157c-5.726562 7.445312-10.441406 15.617187-14.019531 24.300781h-25.1875c-9.265625.011719-16.777344 7.519531-16.785156 16.785156v50.363282c.007812 9.265624 7.519531 16.773437 16.785156 16.785156h25.1875c3.582031 8.683594 8.292969 16.855468 14.019531 24.300781l-12.542968 21.746094c-2.257813 3.851562-2.890626 8.445312-1.75 12.761719 1.140624 4.316406 3.957031 8 7.824218 10.234374l43.722656 25.226563c3.84375 2.175781 8.394532 2.75 12.664063 1.597656 4.296875-1.128906 7.953125-3.953125 10.136719-7.824219l12.574218-21.796874c9.339844 1.195312 18.792969 1.195312 28.132813 0l8.941406 15.542968-10.222656 10.226563c-7.578125 7.492187-9.527344 18.988281-4.839844 28.558593l-25.988281 25.984376c-9.585938-4.378907-20.867188-2.492188-28.507812 4.765624l-89.023438 89.027344c-4.722656 4.722656-7.375 11.128906-7.375 17.804688 0 6.679687 2.652344 13.085937 7.375 17.808594l35.609375 35.609374c9.839844 9.820313 25.773437 9.820313 35.613281 0l89.027344-89.023437c7.5-7.546875 9.4375-18.992187 4.84375-28.585937l25.910156-25.914063c6.300782 3.070313 13.605469 3.332031 20.109375.71875v7.492187c.011719 9.265626 7.523438 16.777344 16.789063 16.789063h25.1875c3.578125 8.683594 8.292968 16.851563 14.019531 24.296875l-12.542969 21.746094c-2.257812 3.851562-2.890625 8.445312-1.75 12.761718 1.140625 4.320313 3.957032 8.003907 7.824219 10.238282l43.722656 25.222656c3.84375 2.179688 8.394531 2.753906 12.664063 1.597656 4.296875-1.128906 7.953125-3.949218 10.136718-7.824218l12.574219-21.792969c9.339844 1.1875 18.792969 1.1875 28.132813 0l12.523437 21.714843c2.183594 3.910157 5.859375 6.761719 10.1875 7.90625 4.296875 1.160157 8.878907.570313 12.742188-1.644531l43.664062-25.195312c3.851563-2.234375 6.65625-5.90625 7.796875-10.210938 1.140625-4.304687.519532-8.886719-1.722656-12.730469l-12.5625-21.789062c5.722656-7.445312 10.4375-15.613281 14.015625-24.296875h25.1875c9.269531-.011719 16.777344-7.523437 16.789063-16.789063v-50.359374c-.011719-9.265626-7.519532-16.777344-16.789063-16.789063h-25.203125c-.316406-.777344-.761719-1.582031-1.109375-2.371094 45.226563-52.09375 55.847656-125.800781 27.175781-188.542969-28.671875-62.742187-91.351562-102.953124-160.335937-102.855468zm159.472656 176.261718c-.058594 54.84375-28.316406 105.800782-74.800781 134.898438-.1875.136719-.421875.210938-.59375.359375-31.386719 19.972656-68.90625 27.984375-105.710938 22.578125-1.261718-.582031-2.652344-.839844-4.039062-.75-.105469.011719-.1875.074219-.289063.089844-83.515625-13.832032-141.648437-90.535156-132.390625-174.679688 9.257813-84.144531 82.675782-146.375 167.199219-141.71875 84.527344 4.652344 150.667969 74.570313 150.625 159.222656zm-75.539063 159.476563c.03125 24.65625-17.816406 45.703125-42.148437 49.695313-24.332031 3.992187-47.972656-10.242188-55.820313-33.621094 4.644532.371094 9.296876.710937 14.035157.710937 29.191406.035157 57.929687-7.230469 83.597656-21.132812.125 1.449219.335937 2.898437.335937 4.347656zm-260.195312-159.476563c0 5.359376.335938 10.632813.800781 15.871094-18.769531 3.5-37.902343-3.925781-49.402343-19.167968-11.496094-15.242188-13.378907-35.675782-4.863282-52.765626 8.519532-17.085937 25.976563-27.882812 45.070313-27.871093 9.222656.007812 18.257812 2.597656 26.082031 7.476562-11.609375 23.816407-17.660156 49.960938-17.6875 76.457031zm-25.351562 57.214844c-3.492188-.65625-7.019532.976563-8.785157 4.0625l-15.386719 26.800782-43.59375-25.210938 15.445313-26.773438c1.777344-3.082031 1.417969-6.949218-.894531-9.652343-7.390625-8.585938-13.101563-18.488281-16.828125-29.183594-1.167969-3.382813-4.351563-5.648437-7.929688-5.648437h-30.972656v-50.363282h30.972656c3.574219 0 6.753907-2.265625 7.925781-5.644531 3.730469-10.695313 9.441407-20.597656 16.835938-29.183594 2.3125-2.703125 2.671875-6.570312.890625-9.652343l-15.496094-26.808594 43.589844-25.15625 15.445313 26.773437c1.761718 3.09375 5.289062 4.722657 8.785156 4.0625 11.207031-2.039062 22.695312-2.039062 33.902344 0 3.492187.652344 7.015624-.972656 8.789062-4.054687l15.390625-26.804688 32.3125 18.632813c-15.566406 12.761719-28.851563 28.082031-39.28125 45.300781-10.316406-6.195312-22.125-9.457031-34.160156-9.429688-25.441407-.101562-48.75 14.179688-60.214844 36.890626-11.460937 22.714843-9.105469 49.953124 6.089844 70.355468 15.191406 20.40625 40.609375 30.472656 65.65625 26.003906 1.582031 8.363282 3.777343 16.601563 6.566406 24.644532-.382813-.011719-.765625 0-1.148437.039062-11.207032 2.039063-22.691407 2.039063-33.898438 0zm59.402343 108.472656-23.707031 23.710938-11.875-11.867188-11.871094-11.871093 23.746094-23.738281.519531.519531zm-118.667969 142.410157c-3.28125 3.277343-8.59375 3.277343-11.875 0l-35.609374-35.613281c-1.574219-1.570313-2.457032-3.707032-2.457032-5.929688 0-2.226562.882813-4.363281 2.457032-5.933594l11.871093-11.871094 47.484375 47.480469zm89.027344-89.023438-65.289062 65.289063-47.480469-47.484375 65.285156-65.285157c3.320313-3.167968 8.542969-3.167968 11.867188 0l35.613281 35.613282c3.269531 3.28125 3.269531 8.585937.003906 11.867187zm47.546875-59.238281-.074219-.113281-29.152343-29.152344-6.46875-6.488281c-3.253907-3.261719-3.253907-8.539063 0-11.800782l13.847656-13.851562c12.640625 18.699219 28.730469 34.816406 47.402344 47.492188l-13.78125 13.832031c-3.234375 3.261719-8.496094 3.296875-11.777344.082031zm283.777344-25.539062v50.359374h-30.96875c-3.574219.003907-6.757813 2.265626-7.929687 5.644532-3.726563 10.699218-9.433594 20.597656-16.824219 29.183594-2.316407 2.703124-2.671875 6.570312-.894531 9.652343l15.492187 26.8125-43.589844 25.15625-15.445312-26.777343c-1.773438-3.078126-5.292969-4.707032-8.789063-4.0625-11.207031 2.042968-22.691406 2.042968-33.898437 0-3.496094-.652344-7.019531.976562-8.789063 4.0625l-15.390625 26.800781-43.59375-25.210938 15.445313-26.777343c1.777344-3.078126 1.417968-6.949219-.894532-9.652344-7.394531-8.582032-13.101562-18.484375-16.828124-29.183594-1.171876-3.378906-4.355469-5.648438-7.929688-5.648438h-30.972656v-21.402343l8.308594-8.339844c16.226562 8.789063 33.742187 14.957031 51.894531 18.273437 4.625 23.734376 21.675781 43.140626 44.617187 50.78125 22.941406 7.644532 48.222656 2.339844 66.160156-13.878906 17.933594-16.21875 25.746094-40.839844 20.445313-64.433594 7.554687-5.210937 14.691406-11.003906 21.347656-17.320312.050781.148438.121094.3125.175781.457031 1.207032 3.308594 4.359376 5.507813 7.882813 5.503907zm0 0"/><path d="m186.671875 156.90625c-.058594.195312-.007813.386719-.050781.582031-5.910156 43.96875 9.007812 88.183594 40.351562 119.582031 1.789063 1.785157 3.707032 3.351563 5.5625 5.023438.050782.066406.136719.105469.1875.167969 38.667969 35.03125 93.382813 46.140625 142.652344 28.96875 49.269531-17.175781 85.222656-59.890625 93.738281-111.367188 8.511719-51.476562-11.769531-103.492187-52.886719-135.617187-.371093-.328125-.773437-.625-1.199218-.882813-40.214844-31.238281-94.054688-38.601562-141.183594-19.3125-47.125 19.289063-80.351562 62.289063-87.125 112.757813zm127.496094 144.304688c19.527343-29.8125 58.089843-40.59375 90.25-25.234376-25.710938 19.722657-58.039063 28.761719-90.25 25.234376zm103.71875-37.113282c-20.519531-11.882812-44.96875-14.992187-67.808594-8.621094-22.84375 6.367188-42.15625 21.675782-53.566406 42.464844-16.890625-4.292968-32.695313-12.074218-46.394531-22.84375 3.894531-6.46875 8.296874-12.621094 13.167968-18.390625 2.335938-2.695312 2.703125-6.578125.917969-9.664062l-23.851563-41.410157c-.613281-1.042968-.785156-2.285156-.480468-3.457031.308594-1.167969 1.070312-2.164062 2.117187-2.769531l67.355469-38.910156c1.050781-.613282 2.304688-.777344 3.484375-.457032 1.15625.3125 2.136719 1.082032 2.71875 2.128907l23.835937 41.382812c1.785157 3.054688 5.285157 4.679688 8.773438 4.066407 17.878906-3.269532 36.203125-3.269532 54.082031 0 3.488281.628906 6.996094-1 8.769531-4.066407l23.863282-41.425781c.578125-1.03125 1.546875-1.785156 2.6875-2.089844 1.164062-.316406 2.402344-.15625 3.449218.441406l12.285157 7.058594c2.53125 35.765625-10.351563 70.910156-35.402344 96.5625zm32.09375-117.832031-.640625-.367187c-4.898438-2.800782-10.710938-3.542969-16.15625-2.066407-5.457032 1.453125-10.101563 5.042969-12.886719 9.957031l-20.941406 36.351563c-16.023438-2.363281-32.304688-2.363281-48.328125 0l-20.90625-36.304687c-2.785156-4.9375-7.441406-8.542969-12.917969-10.003907-5.464844-1.480469-11.292969-.726562-16.203125 2.097657l-67.425781 38.953124c-4.898438 2.832032-8.46875 7.5-9.921875 12.972657-1.453125 5.46875-.671875 11.292969 2.175781 16.183593l20.925781 36.328126c-3.339844 4.25-6.460937 8.667968-9.351562 13.238281-24.117188-24.953125-36.820313-58.78125-35.085938-93.441407l13.84375 4.003907c1.742188.445312 3.535156.675781 5.335938.675781 9.703125-.023438 18.160156-6.609375 20.5625-16.011719l10.539062-40.554687c8.03125-1.007813 15.976563-2.597656 23.777344-4.753906 7.773438-2.15625 15.382812-4.867188 22.769531-8.109376l29.828125 29.460938c8.398438 8.25 21.878906 8.195312 30.207032-.128906l52.023437-52.742188c1.910156 1.691406 3.859375 3.3125 5.691406 5.144532 16.261719 16.28125 27.710938 36.742187 33.085938 59.117187zm-211.136719-59.117187c42.53125-42.4375 109.105469-48.953126 159.058594-15.5625l-50.59375 51.285156c-.839844.890625-2.007813 1.398437-3.230469 1.417968-1.222656.015626-2.402344-.460937-3.269531-1.320312l-33.992188-33.574219c-2.523437-2.488281-6.335937-3.125-9.53125-1.597656-8.164062 3.929687-16.660156 7.121094-25.386718 9.546875-8.742188 2.414062-17.6875 4.039062-26.722657 4.851562-3.527343.320313-6.476562 2.820313-7.367187 6.25l-12.015625 46.21875c-.285157 1.152344-1.019531 2.144532-2.042969 2.753907-.949219.582031-2.085938.78125-3.179688.558593l-16.40625-4.746093c4.570313-25.042969 16.667969-48.097657 34.679688-66.082031zm0 0"/></svg>