<?xml version="1.0" encoding="iso-8859-1"?>
<!-- Generator: Adobe Illustrator 19.0.0, SVG Export Plug-In . SVG Version: 6.00 Build 0)  -->
<svg version="1.1" id="Capa_1" xmlns="http://www.w3.org/2000/svg" xmlns:xlink="http://www.w3.org/1999/xlink" x="0px" y="0px"
	 viewBox="0 0 512.256 512.256" style="enable-background:new 0 0 512.256 512.256;" xml:space="preserve">
<g transform="translate(-1 -1)">
	<g>
		<g>
			<path d="M333.928,201.725c-4.713,0-8.533,3.82-8.533,8.533s3.821,8.533,8.533,8.533v83.627
				c-0.051,3.217-2.176,79.548-81.604,133.692c-2.612,1.677-4.108,4.641-3.904,7.739c0.203,3.098,2.073,5.841,4.882,7.163
				c2.809,1.322,6.115,1.013,8.631-0.805c86.656-59.042,89.003-143.949,89.062-147.669v-83.746
				C350.995,209.366,343.354,201.725,333.928,201.725z"/>
			<path d="M180.328,302.538v-83.746h93.867c4.713,0,8.533-3.82,8.533-8.533s-3.821-8.533-8.533-8.533h-93.867
				c-9.426,0-17.067,7.641-17.067,17.067v83.746c2.396,34.912,14.81,68.392,35.755,96.427c2.766,3.817,8.104,4.669,11.921,1.903
				c3.817-2.766,4.669-8.104,1.903-11.921C194.057,363.794,182.784,333.834,180.328,302.538z"/>
			<path d="M314.361,262.892c-3.332-3.331-8.734-3.331-12.066,0l-63.3,63.3l-9.967-9.967c-3.348-3.234-8.671-3.188-11.962,0.104
				c-3.292,3.292-3.338,8.614-0.104,11.962l16,16c3.332,3.331,8.734,3.331,12.066,0l69.333-69.333
				C317.692,271.626,317.692,266.224,314.361,262.892z"/>
			<path d="M478.995,321.192c-6.074,0.03-12.027,1.702-17.229,4.838l-19.405-19.405c-1.6-1.6-3.77-2.5-6.033-2.5h-51.2
				c0-0.759,0-1.34,0-1.587v-32.546h60.945c4.297,16.643,20.299,27.494,37.35,25.328c17.051-2.166,29.832-16.673,29.832-33.861
				s-12.781-31.695-29.832-33.861c-17.051-2.166-33.053,8.685-37.35,25.328h-60.945v-34.133h51.2c2.263,0,4.433-0.9,6.033-2.5
				l19.405-19.405c5.202,3.137,11.155,4.809,17.229,4.838c18.851,0,34.133-15.282,34.133-34.133s-15.282-34.133-34.133-34.133
				s-34.133,15.282-34.133,34.133c0.03,6.074,1.702,12.027,4.838,17.229l-16.905,16.905h-47.667v-8.533
				c0-14.138-11.461-25.6-25.6-25.6h-42.667v-39.134l42.505-42.505c5.202,3.137,11.155,4.809,17.229,4.838
				c18.851,0,34.133-15.282,34.133-34.133s-15.282-34.133-34.133-34.133s-34.133,15.282-34.133,34.133
				c0.03,6.074,1.701,12.027,4.838,17.229l-45.005,45.005c-1.6,1.6-2.5,3.77-2.5,6.033v42.667h-34.133V89.58
				c16.643-4.297,27.494-20.299,25.328-37.35c-2.166-17.051-16.673-29.832-33.861-29.832s-31.695,12.781-33.861,29.832
				c-2.166,17.051,8.685,33.053,25.328,37.35v78.012h-34.133v-42.667c0-2.263-0.9-4.433-2.5-6.033l-45.005-45.005
				c3.137-5.202,4.809-11.155,4.838-17.229c0-18.851-15.282-34.133-34.133-34.133s-34.133,15.282-34.133,34.133
				s15.282,34.133,34.133,34.133c6.074-0.03,12.027-1.702,17.229-4.838l42.505,42.505v39.134h-42.667
				c-14.139,0-25.6,11.461-25.6,25.6v8.533H81.461l-16.905-16.905c3.137-5.202,4.809-11.155,4.838-17.229
				c0-18.851-15.282-34.133-34.133-34.133S1.128,148.741,1.128,167.592s15.282,34.133,34.133,34.133
				c6.074-0.03,12.027-1.702,17.229-4.838l19.405,19.405c1.6,1.6,3.77,2.5,6.033,2.5h51.2v34.133H68.183
				c-4.297-16.643-20.299-27.494-37.35-25.328S1,244.27,1,261.458s12.781,31.695,29.832,33.861
				c17.051,2.166,33.053-8.685,37.35-25.328h60.945v32.546c0,0.247,0,0.853,0,1.587h-51.2c-2.263,0-4.433,0.9-6.033,2.5
				L52.49,326.03c-5.202-3.137-11.155-4.809-17.229-4.838c-18.851,0-34.133,15.282-34.133,34.133
				c0,18.851,15.282,34.133,34.133,34.133s34.133-15.282,34.133-34.133c-0.03-6.074-1.702-12.027-4.838-17.229l16.905-16.905h49.374
				c9.999,62.333,45.105,117.846,97.135,153.6h-30.575c-4.713,0-8.533,3.82-8.533,8.533s3.82,8.533,8.533,8.533h119.467
				c4.713,0,8.533-3.82,8.533-8.533s-3.82-8.533-8.533-8.533h-30.575c52.03-35.754,87.136-91.267,97.135-153.6h49.34l16.904,16.905
				c-3.125,5.205-4.785,11.158-4.804,17.229c0,18.851,15.282,34.133,34.133,34.133s34.133-15.282,34.133-34.133
				C513.128,336.474,497.846,321.192,478.995,321.192z M478.995,244.392c9.426,0,17.067,7.641,17.067,17.067
				s-7.641,17.067-17.067,17.067s-17.067-7.641-17.067-17.067S469.569,244.392,478.995,244.392z M463.235,161.071
				c2.637-6.379,8.857-10.541,15.76-10.546c7.725-0.005,14.49,5.178,16.494,12.639c2.004,7.46-1.252,15.337-7.94,19.203
				c-6.688,3.866-15.138,2.759-20.604-2.7C462.062,174.788,460.598,167.449,463.235,161.071z M360.835,50.137
				c2.637-6.379,8.857-10.541,15.76-10.546c7.725-0.006,14.49,5.178,16.494,12.639c2.004,7.46-1.252,15.337-7.94,19.203
				c-6.688,3.866-15.138,2.759-20.604-2.7C359.662,63.855,358.198,56.516,360.835,50.137z M149.736,68.708
				c-4.878,4.883-12.217,6.348-18.596,3.71c-6.379-2.637-10.541-8.857-10.546-15.76c-0.005-7.725,5.178-14.49,12.639-16.494
				c7.46-2.004,15.337,1.252,19.203,7.94C156.303,54.791,155.195,63.242,149.736,68.708z M47.336,179.641
				c-4.878,4.883-12.217,6.348-18.596,3.71c-6.379-2.637-10.541-8.857-10.546-15.76c-0.005-7.725,5.178-14.49,12.639-16.494
				c7.46-2.004,15.337,1.252,19.203,7.94C53.903,165.725,52.795,174.176,47.336,179.641z M35.261,278.525
				c-9.426,0-17.067-7.641-17.067-17.067s7.641-17.067,17.067-17.067s17.067,7.641,17.067,17.067S44.687,278.525,35.261,278.525z
				 M51.021,361.846c-2.637,6.379-8.857,10.541-15.76,10.546c-7.725,0.005-14.49-5.178-16.494-12.639
				c-2.004-7.46,1.252-15.337,7.94-19.203c6.688-3.867,15.138-2.759,20.604,2.7C52.194,348.128,53.658,355.468,51.021,361.846z
				 M240.061,56.658c0-9.426,7.641-17.067,17.067-17.067c9.426,0,17.067,7.641,17.067,17.067s-7.641,17.067-17.067,17.067
				C247.702,73.725,240.061,66.084,240.061,56.658z M368.061,302.529c0,4.361-1.647,106.385-110.933,170.94
				C147.841,408.914,146.195,306.89,146.195,302.538V193.192c0-4.713,3.821-8.533,8.533-8.533h204.8c4.713,0,8.533,3.82,8.533,8.533
				V302.529z M483.423,371.819c-7.46,2.004-15.337-1.252-19.203-7.94s-2.759-15.138,2.7-20.604
				c4.878-4.883,12.217-6.348,18.596-3.71c6.379,2.637,10.541,8.857,10.546,15.76C496.067,363.05,490.883,369.815,483.423,371.819z"
				/>
		</g>
	</g>
</g>
<g>
</g>
<g>
</g>
<g>
</g>
<g>
</g>
<g>
</g>
<g>
</g>
<g>
</g>
<g>
</g>
<g>
</g>
<g>
</g>
<g>
</g>
<g>
</g>
<g>
</g>
<g>
</g>
<g>
</g>
</svg>
