<?xml version="1.0" encoding="UTF-8"?>
<svg xmlns="http://www.w3.org/2000/svg" xmlns:xlink="http://www.w3.org/1999/xlink" width="512" height="512" viewBox="0 0 60 60" version="1.1"><!-- Generator: Sketch 51.3 (57544) - http://www.bohemiancoding.com/sketch --><title>027 - Secure</title><desc>Created with Sketch.</desc><defs/><g id="Page-1" stroke="none" stroke-width="1" fill="none" fill-rule="evenodd"><g id="027---Secure" transform="translate(0.000000, -1.000000)" fill="#000000" fill-rule="nonzero"><path d="M59.4,7.994 L43.4,1.082 C43.1472508,0.973000681 42.8607492,0.973000681 42.608,1.082 L33.132,5.174 C28.1099638,0.801197863 20.9955596,-0.232721919 14.9365777,2.52970171 C8.87759584,5.29212534 4.99239715,11.341007 5,18 L5,23 C2.23994685,23.0033061 0.00330611633,25.2399468 0,28 L0,56 C0.00330611633,58.7600532 2.23994685,60.9966939 5,61 L39,61 C41.7600532,60.9966939 43.9966939,58.7600532 44,56 L44,42.7 C44.032,42.68 44.069,42.672 44.1,42.65 L55.157,34.778 C58.1840361,32.6291277 59.9876118,29.1512024 60,25.439 L60,8.912 C60.000591,8.51383898 59.7649212,8.15326415 59.4,7.994 Z M7,18 C6.99821304,12.3007252 10.227486,7.09312467 15.3334857,4.56122749 C20.4394854,2.02933032 26.5394114,2.61088817 31.075,6.062 L26.6,7.994 C26.5879878,8.00040728 26.5763063,8.00741618 26.565,8.015 C23.1641018,6.45441429 19.2026895,6.73250438 16.0531772,8.75292716 C12.9036648,10.7733499 10.9993597,14.2581374 11,18 L11,23 L6.99999926,23 L7,18 Z M26,23 L12.9999361,23 L13,18 C12.9882498,14.8817466 14.5974829,11.9813427 17.249448,10.3410003 C19.9014131,8.7006579 23.2151794,8.55599733 26,9.959 L26,23 Z M39,59 L5,59 C3.34314575,59 2,57.6568542 2,56 L2,55 L8,55 C8.55228475,55 9,54.5522847 9,54 C9,53.4477153 8.55228475,53 8,53 L2,53 L2,51 L8,51 C8.55228475,51 9,50.5522847 9,50 C9,49.4477153 8.55228475,49 8,49 L2,49 L2,47 L8,47 C8.55228475,47 9,46.5522847 9,46 C9,45.4477153 8.55228475,45 8,45 L2,45 L2,43 L8,43 C8.55228475,43 9,42.5522847 9,42 C9,41.4477153 8.55228475,41 8,41 L2,41 L2,39 L8,39 C8.55228475,39 9,38.5522847 9,38 C9,37.4477153 8.55228475,37 8,37 L2,37 L2,35 L8,35 C8.55228475,35 9,34.5522847 9,34 C9,33.4477153 8.55228475,33 8,33 L2,33 L2,31 L8,31 C8.55228475,31 9,30.5522847 9,30 C9,29.4477153 8.55228475,29 8,29 L2,29 L2,28 C2,26.3431458 3.34314575,25 5,25 L26,25 L26,25.439 C26.0115768,29.1503763 27.8145207,32.6277749 30.841,34.776 L39.584,41 L36,41 C35.4477153,41 35,41.4477153 35,42 C35,42.5522847 35.4477153,43 36,43 L42,43 L42,45 L36,45 C35.4477153,45 35,45.4477153 35,46 C35,46.5522847 35.4477153,47 36,47 L42,47 L42,49 L36,49 C35.4477153,49 35,49.4477153 35,50 C35,50.5522847 35.4477153,51 36,51 L42,51 L42,53 L36,53 C35.4477153,53 35,53.4477153 35,54 C35,54.5522847 35.4477153,55 36,55 L42,55 L42,56 C42,57.6568542 40.6568542,59 39,59 Z M58,25.439 C57.989063,28.5033816 56.4993908,31.37398 54,33.147 L43,40.977 L32,33.147 C29.5006092,31.37398 28.010937,28.5033816 28,25.439 L28,9.569 L33.35,7.258 L33.378,7.246 L43,3.089 L58,9.569 L58,25.439 Z" id="Shape"/><path d="M42.6,5.439 L30.6,10.623 C30.2350788,10.7822641 29.999409,11.142839 30,11.541 L30,25.441 C30.0112542,27.858628 31.1883258,30.1222846 33.161,31.52 L42.42,38.11 C42.7671643,38.357178 43.2328357,38.357178 43.58,38.11 L52.839,31.52 C54.8127618,30.1223237 55.9900537,27.8574987 56,25.439 L56,11.539 C56.000591,11.140839 55.7649212,10.7802641 55.4,10.621 L43.4,5.437 C43.1446713,5.3263241 42.8547721,5.32704885 42.6,5.439 Z M54,12.2 L54,25.439 C53.9903181,27.2101023 53.1258669,28.8674947 51.679,29.889 L43,36.066 L34.321,29.889 C32.8749046,28.8668203 32.0106764,27.2098555 32,25.439 L32,12.2 L43,7.447 L54,12.2 Z" id="Shape"/><path d="M36.742,22.914 C36.4561875,22.6996406 36.0777266,22.6540436 35.7491797,22.7943848 C35.4206328,22.9347259 35.1919141,23.2396842 35.1491797,23.5943848 C35.1064453,23.9490853 35.2561875,24.2996406 35.542,24.514 L40.113,27.942 C40.5450438,28.2662308 41.1564866,28.1887489 41.494,27.767 L50.637,16.339 C50.9819018,15.9073895 50.9116105,15.2779018 50.48,14.933 C50.0483895,14.5880982 49.4189018,14.6583895 49.074,15.09 L40.538,25.761 L36.742,22.914 Z" id="Shape"/><path d="M28,38 C28.0011926,35.1677082 26.0216329,32.7203198 23.2516537,32.1294786 C20.4816745,31.5386374 17.6757774,32.9652799 16.521182,35.5515489 C15.3665865,38.1378179 16.1777875,41.1792518 18.467,42.847 L17.017,50.821 C16.9639451,51.1126082 17.0429833,51.4127273 17.2327879,51.640377 C17.4225926,51.8680267 17.7036048,51.9997484 18,52 L26,52 C26.2963952,51.9997484 26.5774074,51.8680267 26.7672121,51.640377 C26.9570167,51.4127273 27.0360549,51.1126082 26.983,50.821 L25.533,42.847 C27.0793851,41.7156209 27.9953136,39.9160646 28,38 Z M23.939,41.5 C23.5677209,41.709197 23.3698121,42.1307066 23.446,42.55 L24.8,50 L19.2,50 L20.556,42.549 C20.6321879,42.1297066 20.4342791,41.708197 20.063,41.499 C18.4681062,40.6150781 17.6728777,38.7643944 18.1293753,36.999001 C18.5858729,35.2336075 20.1785406,34.000389 22.002,34.000389 C23.8254594,34.000389 25.4181271,35.2336075 25.8746247,36.999001 C26.3311223,38.7643944 25.5358938,40.6150781 23.941,41.499 L23.939,41.5 Z" id="Shape"/></g></g></svg>
