<?xml version="1.0" encoding="iso-8859-1"?>
<!-- Generator: Adobe Illustrator 19.0.0, SVG Export Plug-In . SVG Version: 6.00 Build 0)  -->
<svg version="1.1" id="Capa_1" xmlns="http://www.w3.org/2000/svg" xmlns:xlink="http://www.w3.org/1999/xlink" x="0px" y="0px"
	 viewBox="0 0 511.997 511.997" style="enable-background:new 0 0 511.997 511.997;" xml:space="preserve">
<g>
	<g>
		<path d="M160.59,8.18c0-4.216-3.417-7.634-7.634-7.634H97.057c-19.24,0-34.893,15.653-34.893,34.894v21.235v0.099v25.569
			c0,10.449,4.707,19.82,12.117,26.15c-13.602,8.321-22.699,23.315-22.699,40.395c0,10.237,3.226,33.681,7.67,55.746
			c0.833,4.133,4.852,6.81,8.992,5.977c4.134-0.833,6.808-4.858,5.976-8.991c-1.012-5.024-1.925-9.928-2.736-14.618h54.847
			c-1.65,9.559-3.719,19.987-6.177,30.375c-4.994,21.094-9.775,34.261-13.612,42.208v-50.712c0-4.216-3.417-7.634-7.634-7.634
			s-7.634,3.418-7.634,7.634v50.677c-3.296-6.819-7.296-17.488-11.526-33.765c-1.061-4.08-5.224-6.529-9.309-5.468
			c-4.081,1.061-6.529,5.229-5.468,9.309c4.737,18.224,9.562,31.697,14.738,40.856c-3.636,0.584-6.417,3.727-6.417,7.528
			c0,4.216,3.417,7.634,7.634,7.634h35.966c4.217,0,7.634-3.418,7.634-7.634c0-3.797-2.775-6.937-6.405-7.526
			c5.761-10.172,11.077-25.648,16.272-47.011c3.406-14.01,6.307-29.192,8.385-42.493c0.061-0.285,0.108-0.575,0.136-0.871
			c2.098-13.571,3.319-25.084,3.319-31.22c0-17.488-9.543-32.781-23.687-40.972c6.607-6.094,10.778-14.792,10.85-24.45h5.388
			c2.44,0,4.734-1.166,6.171-3.139c1.436-1.973,1.844-4.514,1.095-6.837l-10.285-31.903C150.111,37.255,160.59,23.92,160.59,8.18z
			 M130.966,148.888c0,4.16-0.768,12.395-2.236,22.845H69.08c-1.465-10.402-2.229-18.591-2.229-22.845
			c0-17.676,14.38-32.058,32.057-32.058C116.584,116.83,130.966,131.21,130.966,148.888z M125.764,68.196
			c-4.217,0-7.634,3.418-7.634,7.634v7.375c0,10.122-8.235,18.356-18.356,18.356h-2.902c-10.719,0-19.44-8.622-19.44-19.221V63.37
			c9.846-2.694,17.62-10.453,20.313-20.298h22.459l8.099,25.124H125.764z M125.697,27.804H91.13c-4.217,0-7.634,3.418-7.634,7.634
			c0,4.73-2.409,8.907-6.065,11.37v-11.37h0.001c0-10.821,8.804-19.626,19.625-19.626h46.72
			C140.792,22.853,133.813,27.804,125.697,27.804z"/>
	</g>
</g>
<g>
	<g>
		<path d="M168.028,255.426c-3.929-1.523-8.353,0.429-9.876,4.36c-1.524,3.931,0.429,8.354,4.36,9.877
			c14.197,5.503,19.235,11.496,19.235,14.958c0,3.738-5.645,10.125-21.555,15.821c-16.359,5.858-38.266,9.083-61.684,9.083
			c-23.419,0-45.325-3.226-61.685-9.083c-15.908-5.697-21.553-12.083-21.553-15.822c0-3.689,5.535-10.006,21.136-15.67
			c3.964-1.439,6.01-5.818,4.57-9.782c-1.439-3.963-5.816-6.008-9.781-4.57C5.411,263.961,0,276.092,0,284.62
			c0,8.601,5.495,20.822,31.676,30.196c17.969,6.434,41.703,9.977,66.831,9.977c25.128,0,48.862-3.543,66.83-9.977
			c26.181-9.375,31.677-21.595,31.677-30.196C197.015,276.427,191.987,264.711,168.028,255.426z"/>
	</g>
</g>
<g>
	<g>
		<path d="M461.588,288.232c-4.217,0-7.634,3.418-7.634,7.634c0,5.941-1.149,17.66-3.251,32.211h-82.006
			c-2.102-14.55-3.251-26.269-3.251-32.211c0-24.403,19.853-44.255,44.255-44.255c16.262,0,31.182,8.891,38.939,23.204
			c2.009,3.706,6.641,5.084,10.349,3.074c3.707-2.009,5.083-6.642,3.075-10.349c-5.675-10.472-14.206-18.778-24.326-24.181
			c10.694-7.784,17.655-20.342,17.655-34.491v-33.426v-0.128v-27.76c0-23.859-19.411-43.27-43.271-43.27h-73.078
			c-4.217,0-7.634,3.418-7.634,7.634c-0.003,20.352,14.128,37.459,33.093,42.048l-14.199,44.047
			c-0.748,2.323-0.341,4.863,1.095,6.837c1.436,1.973,3.731,3.139,6.171,3.139h9.389V210c0,13.274,6.256,25.107,15.964,32.732
			c-19.404,9.818-32.745,29.942-32.745,53.134c0,7.964,1.594,22.939,4.329,40.602c0.029,0.285,0.073,0.565,0.132,0.84
			c2.709,17.346,6.498,37.189,10.952,55.509c8.101,33.318,15.945,52.855,23.088,64.216h-2.49c-4.217,0-7.634,3.418-7.634,7.634
			c0,4.216,3.417,7.634,7.634,7.634h47.017c4.217,0,7.634-3.418,7.634-7.634c0-4.216-3.417-7.634-7.634-7.634h-2.488
			c7.143-11.36,14.987-30.898,23.088-64.216c4.455-18.323,8.246-38.17,10.954-55.518c0.057-0.269,0.101-0.543,0.129-0.82
			c2.736-17.667,4.331-32.646,4.331-40.611C469.222,291.65,465.805,288.232,461.588,288.232z M347.732,119.552h64.387
			c15.441,0,28.003,12.562,28.003,28.002v18.761c-7.396-3.02-12.621-10.293-12.621-18.761c0-4.216-3.417-7.634-7.634-7.634h-45.189
			C361.882,139.919,351.063,131.294,347.732,119.552z M382.224,210.001v-9.642c0-4.216-3.417-7.634-7.634-7.634h-6.541l12.1-37.536
			h32.906c2.961,13.472,13.592,24.1,27.063,27.061v26.619c0.002,15.149-12.452,27.474-27.758,27.474h-3.794
			C394.041,236.343,382.224,224.526,382.224,210.001z M438.971,389.208c-8.269,34.006-16.037,51.778-21.639,60.458v-75.385
			c0-4.216-3.417-7.634-7.634-7.634s-7.634,3.418-7.634,7.634v75.385c-5.602-8.68-13.37-26.451-21.639-60.458
			c-3.742-15.388-6.9-31.382-9.339-45.864h77.224C445.871,357.826,442.712,373.82,438.971,389.208z"/>
	</g>
</g>
<g>
	<g>
		<path d="M480.805,441.255c-3.964-1.438-8.341,0.608-9.781,4.57c-1.439,3.964,0.608,8.342,4.57,9.782
			c15.601,5.664,21.137,11.981,21.137,15.67c0,3.738-5.645,10.125-21.557,15.821c-16.358,5.858-38.266,9.083-61.684,9.083
			s-45.325-3.226-61.684-9.083c-15.911-5.697-21.557-12.083-21.557-15.821c0-3.461,5.037-9.455,19.235-14.957
			c3.931-1.524,5.883-5.945,4.359-9.877c-1.523-3.93-5.942-5.884-9.876-4.36c-23.958,9.285-28.987,21-28.987,29.194
			c0,8.601,5.495,20.822,31.677,30.196c17.969,6.434,41.703,9.977,66.83,9.977s48.862-3.543,66.83-9.977
			c26.182-9.375,31.677-21.595,31.677-30.196C512,462.749,506.588,450.618,480.805,441.255z"/>
	</g>
</g>
<g>
	<g>
		<path d="M322.14,417.036l-150.938-85.399c-3.67-2.077-8.329-0.784-10.404,2.885c-2.076,3.669-0.785,8.327,2.885,10.404
			l150.938,85.399c1.188,0.672,2.48,0.991,3.753,0.991c2.662,0,5.247-1.395,6.651-3.876
			C327.101,423.77,325.81,419.112,322.14,417.036z"/>
	</g>
</g>
<g>
</g>
<g>
</g>
<g>
</g>
<g>
</g>
<g>
</g>
<g>
</g>
<g>
</g>
<g>
</g>
<g>
</g>
<g>
</g>
<g>
</g>
<g>
</g>
<g>
</g>
<g>
</g>
<g>
</g>
</svg>
