<?xml version="1.0" encoding="UTF-8"?>
<svg xmlns="http://www.w3.org/2000/svg" xmlns:xlink="http://www.w3.org/1999/xlink" width="512" height="512" viewBox="0 0 60 60" version="1.1"><!-- Generator: Sketch 51.3 (57544) - http://www.bohemiancoding.com/sketch --><title>026 - App Design</title><desc>Created with Sketch.</desc><defs/><g id="Page-1" stroke="none" stroke-width="1" fill="none" fill-rule="evenodd"><g id="026---App-Design" fill="#000000" fill-rule="nonzero"><path d="M28,19 L32,19 C32.5522847,19 33,18.5522847 33,18 C33,17.4477153 32.5522847,17 32,17 L28,17 C27.4477153,17 27,17.4477153 27,18 C27,18.5522847 27.4477153,19 28,19 Z" id="Shape"/><path d="M32,54 L28,54 C27.4477153,54 27,54.4477153 27,55 C27,55.5522847 27.4477153,56 28,56 L32,56 C32.5522847,56 33,55.5522847 33,55 C33,54.4477153 32.5522847,54 32,54 Z" id="Shape"/><path d="M6,52 C6,54.209139 7.790861,56 10,56 C12.209139,56 14,54.209139 14,52 C14,49.790861 12.209139,48 10,48 C7.790861,48 6,49.790861 6,52 Z M10,50 C11.1045695,50 12,50.8954305 12,52 C12,53.1045695 11.1045695,54 10,54 C8.8954305,54 8,53.1045695 8,52 C8,50.8954305 8.8954305,50 10,50 Z" id="Shape"/><path d="M1.188,47.731 C1.9196579,48.1254408 2.80949468,48.0827194 3.5,47.62 C3.53466195,47.5979013 3.56804842,47.5738631 3.6,47.548 L9.061,42.873 C9.65278774,42.4504898 10.0040333,41.7681366 10.0040333,41.041 C10.0040333,40.3138634 9.65278774,39.6315102 9.061,39.209 L3.6,34.458 C3.56825178,34.4300293 3.53485881,34.4039828 3.5,34.38 C2.80952713,33.9186582 1.92107838,33.8751392 1.18882313,34.2667911 C0.456567883,34.6584431 -0.000432373223,35.4215852 -2.22044605e-16,36.252 L-2.22044605e-16,45.752 C0.000590415288,46.5803157 0.457237098,47.3410091 1.188,47.731 Z M2,36.252 C1.99655596,36.1589986 2.04831921,36.0727265 2.132,36.032 C2.16876706,36.0116453 2.20997977,36.0006553 2.252,36 C2.28662832,36.0001404 2.32078996,36.0079976 2.352,36.023 L7.786,40.754 C7.81755872,40.7821984 7.85096647,40.8082565 7.886,40.832 C7.95553878,40.8783683 7.99730609,40.9564197 7.99730609,41.04 C7.99730609,41.1235803 7.95553878,41.2016317 7.886,41.248 C7.85098412,41.2695723 7.81756462,41.2936343 7.786,41.32 L2.354,45.976 C2.27647462,46.0108864 2.18655945,46.00416 2.11508754,45.9581272 C2.04361564,45.9120945 2.00030221,45.8330127 2,45.748 L2,36.252 Z" id="Shape"/><path d="M57,19 L44,19 L44,17 C44,14.790861 42.209139,13 40,13 L20,13 C18.8147966,12.9987177 17.6911657,13.527701 16.937,14.442 C12.9468336,13.2169709 8.61549463,14.5991275 6.07242736,17.9089512 C3.52936009,21.2187749 3.30954872,25.7599793 5.52106054,29.2999425 C7.73257236,32.8399058 11.9101724,34.633927 16,33.8 L16,56 C16,58.209139 17.790861,60 20,60 L40,60 C42.209139,60 44,58.209139 44,56 L44,33 L57,33 C58.6568542,33 60,31.6568542 60,30 L60,22 C60,20.3431458 58.6568542,19 57,19 Z M6,24 C6,19.581722 9.581722,16 14,16 C18.418278,16 22,19.581722 22,24 C22,28.418278 18.418278,32 14,32 C9.58377808,31.9950401 6.00495988,28.4162219 6,24 Z M24,24 C23.995985,20.4033318 22.0608023,17.0858756 18.932,15.312 C19.2510005,15.1083643 19.6215442,15.0001156 20,15 L40,15 C41.1045695,15 42,15.8954305 42,17 L42,19 L36,19 C34.3431458,19 33,20.3431458 33,22 L33,27.764 L29.105,35.553 C28.9797964,35.7957801 28.9613757,36.0797401 29.0541634,36.3366614 C29.1469511,36.5935828 29.3425611,36.8002451 29.594,36.907 C29.6266339,36.920016 29.6600288,36.9310363 29.694,36.94 C29.7723762,36.9659276 29.8536613,36.9820503 29.936,36.988 C29.957,36.988 29.977,37 29.998,37 C30.019,37 30.03,36.989 30.047,36.988 C30.1854126,36.9856586 30.3217512,36.9539599 30.447,36.895 L38.236,33 L42,33 L42,50 L40.417,50 C40.1450691,49.7234693 39.8202951,49.5044594 39.462,49.356 L38.99,49.156 C39.0070059,48.8392281 39.0070059,48.5217719 38.99,48.205 L39.458,48.005 C40.9819804,47.3722986 41.7088987,45.6276052 41.085,44.1 C40.7913843,43.3659014 40.2120761,42.7826228 39.48,42.484 C38.7425349,42.1628192 37.9058323,42.1570389 37.164,42.468 L36.696,42.668 C36.4829981,42.4306455 36.2569837,42.2052988 36.019,41.993 L36.208,41.531 C36.526615,40.7977947 36.5284242,39.9655836 36.213,39.231 C35.7473543,38.1127153 34.6548574,37.3841998 33.4435,37.3841998 C32.2321426,37.3841998 31.1396457,38.1127153 30.674,39.231 L30.474,39.71 C30.1555471,39.6934931 29.8364529,39.6934931 29.518,39.71 L29.318,39.225 C29.0235469,38.4989467 28.4489419,37.9221788 27.724,37.625 C26.9851068,37.3019935 26.1463475,37.2947691 25.402,37.605 C23.8742394,38.2471434 23.151144,40.0019561 23.783,41.534 L23.977,41.998 C23.7405835,42.2099157 23.5159157,42.4345835 23.304,42.671 L22.827,42.471 C21.2999807,41.8586994 19.5633233,42.5763521 18.914,44.088 C18.6054481,44.8240484 18.6029055,45.6527062 18.9069348,46.3906342 C19.2109642,47.1285622 19.7965023,47.7149283 20.534,48.02 L21.006,48.22 C20.9880004,48.5367445 20.9880004,48.8542555 21.006,49.171 L20.54,49.365 C20.180787,49.5103987 19.8543586,49.7263175 19.58,50 L18,50 L18,33.159 C21.6404737,31.5673352 23.9949594,27.9732128 24,24 Z M31,48.692 C30.9963624,49.1928498 30.6227544,49.6137549 30.1258735,49.6767871 C29.6289925,49.7398192 29.1621214,49.4255336 29.0335403,48.9414565 C28.9049592,48.4573794 29.1543341,47.9528437 29.617,47.761 C29.738316,47.7103625 29.8685409,47.6845216 30,47.685 C30.2664338,47.6849935 30.5218543,47.7913107 30.7095932,47.9803637 C30.8973321,48.1694168 31.001865,48.4255727 31,48.692 Z M32.771,47.537 C32.1358725,46.0063428 30.3801572,45.2803725 28.8495,45.9155 C27.3188428,46.5506275 26.5928725,48.3063428 27.228,49.837 C27.253,49.896 27.286,49.948 27.313,50.004 L23.058,50.004 C23.0822383,49.8895658 23.0859628,49.7717366 23.069,49.656 C22.9744947,49.015132 22.9744947,48.363868 23.069,47.723 C23.137555,47.2685758 22.8875596,46.8259271 22.463,46.65 L21.3,46.165 C21.0540556,46.0625742 20.8591509,45.8662408 20.7585241,45.6195549 C20.6578973,45.3728689 20.6598683,45.096227 20.764,44.851 C20.8676528,44.6048964 21.0685575,44.4126794 21.319,44.32 C21.5569961,44.2156748 21.827361,44.2135061 22.067,44.314 L23.228,44.794 C23.6507184,44.9682708 24.1377965,44.8336347 24.411,44.467 C24.8036334,43.9454426 25.2678733,43.481876 25.79,43.09 C26.1566097,42.8153158 26.2896949,42.3266499 26.113,41.904 L25.635,40.759 C25.4297594,40.2481234 25.6669871,39.6665616 26.171,39.445 C26.6798981,39.2450193 27.2559661,39.4818865 27.477,39.982 L27.956,41.142 C28.1292806,41.5608829 28.5626542,41.8108114 29.012,41.751 C29.66243,41.6610518 30.3223259,41.6637452 30.972,41.759 C31.4277982,41.8274749 31.8713587,41.5755457 32.046,41.149 L32.524,39.981 C32.6238772,39.7369713 32.8177859,39.5434231 33.062,39.444 C33.3088776,39.3408973 33.586914,39.3417768 33.8331344,39.4464393 C34.0793547,39.5511018 34.2729244,39.7506909 34.37,40 C34.4757273,40.2384735 34.4757273,40.5105265 34.37,40.749 L33.89,41.919 C33.7138062,42.3480889 33.8558147,42.8420134 34.233,43.112 C34.7572747,43.4967798 35.2216495,43.9571107 35.611,44.478 C35.8873567,44.8385347 36.3720036,44.9675001 36.791,44.792 L37.936,44.314 C38.4465096,44.1142962 39.023167,44.3578231 39.236,44.863 C39.4430185,45.3713711 39.2015593,45.9515871 38.695,46.163 L37.545,46.643 C37.1261063,46.8171565 36.8769272,47.2514752 36.938,47.701 C37.0280754,48.3463489 37.0260553,49.0012191 36.932,49.646 C36.9145365,49.7623758 36.9182631,49.8809505 36.943,49.996 L32.682,49.996 C33.0649353,49.2275966 33.0977384,48.3313411 32.772,47.537 L32.771,47.537 Z M40,58 L20,58 C18.8954305,58 18,57.1045695 18,56 L18,52 L42,52 L42,56 C42,57.1045695 41.1045695,58 40,58 Z M58,30 C58,30.5522847 57.5522847,31 57,31 L38,31 C37.8448727,30.9998553 37.6918389,31.0358028 37.553,31.105 L32.236,33.764 L34.9,28.447 C34.9674687,28.3077438 35.0016999,28.1547301 35,28 L35,22 C35,21.4477153 35.4477153,21 36,21 L57,21 C57.5522847,21 58,21.4477153 58,22 L58,30 Z" id="Shape"/><path d="M40,23 L38,23 C37.4477153,23 37,23.4477153 37,24 C37,24.5522847 37.4477153,25 38,25 L40,25 C40.5522847,25 41,24.5522847 41,24 C41,23.4477153 40.5522847,23 40,23 Z" id="Shape"/><path d="M54,23 L45,23 C44.4477153,23 44,23.4477153 44,24 C44,24.5522847 44.4477153,25 45,25 L54,25 C54.5522847,25 55,24.5522847 55,24 C55,23.4477153 54.5522847,23 54,23 Z" id="Shape"/><circle id="Oval" cx="11" cy="22" r="1"/><circle id="Oval" cx="17" cy="22" r="1"/><path d="M17.959,25.133 C17.7290787,25.0005636 17.4559493,24.9649334 17.1997475,25.0339541 C16.9435457,25.1029748 16.7252777,25.2709873 16.593,25.501 C16.0590173,26.4285378 15.0702635,27.0002123 14,27.0002123 C12.9297365,27.0002123 11.9409827,26.4285378 11.407,25.501 C11.1308576,25.0221691 10.5188309,24.8578576 10.04,25.134 C9.56116912,25.4101424 9.39685763,26.0221691 9.673,26.501 C10.8585963,28.5852898 13.3682706,29.5192005 15.628,28.717 L16.159,29.543 C16.4593353,30.0036143 17.0752183,30.1353218 17.5376753,29.8378316 C18.0001322,29.5403415 18.1356337,28.925282 17.841,28.461 L17.35,27.7 C17.7365738,27.3537033 18.0662697,26.9487543 18.327,26.5 C18.459754,26.2699885 18.4955619,25.996617 18.4265268,25.7401739 C18.3574916,25.4837307 18.189284,25.2652807 17.959,25.133 Z" id="Shape"/><path d="M47,4 C46.4477153,4 46,4.44771525 46,5 L46,7 C46,7.55228475 46.4477153,8 47,8 C47.5522847,8 48,7.55228475 48,7 L48,5 C48,4.44771525 47.5522847,4 47,4 Z" id="Shape"/><path d="M45,8 L43,8 C42.4477153,8 42,8.44771525 42,9 C42,9.55228475 42.4477153,10 43,10 L45,10 C45.5522847,10 46,9.55228475 46,9 C46,8.44771525 45.5522847,8 45,8 Z" id="Shape"/><path d="M46,13 C46,13.5522847 46.4477153,14 47,14 C47.5522847,14 48,13.5522847 48,13 L48,11 C48,10.4477153 47.5522847,10 47,10 C46.4477153,10 46,10.4477153 46,11 L46,13 Z" id="Shape"/><path d="M49,10 L51,10 C51.5522847,10 52,9.55228475 52,9 C52,8.44771525 51.5522847,8 51,8 L49,8 C48.4477153,8 48,8.44771525 48,9 C48,9.55228475 48.4477153,10 49,10 Z" id="Shape"/><path d="M9,0 C7.11227612,0.00320389616 5.48294123,1.32383586 5.089,3.17 C4.73581182,3.06235509 4.36919245,3.00512342 4,3 C1.790861,3 2.705415e-16,4.790861 0,7 C-2.705415e-16,9.209139 1.790861,11 4,11 C4.36919245,10.9948766 4.73581182,10.9376449 5.089,10.83 C5.51777344,12.8286227 7.3844478,14.1824088 9.41738816,13.9691184 C11.4503285,13.755828 12.995377,12.0440934 13,10 C12.9958554,9.29574677 12.8039241,8.60534654 12.444,8 L25,8 L25,11 C25,11.5522847 25.4477153,12 26,12 C26.5522847,12 27,11.5522847 27,11 L27,8 L29,8 L29,10 C29,10.5522847 29.4477153,11 30,11 C30.5522847,11 31,10.5522847 31,10 L31,8 L33,8 L33,11 C33,11.5522847 33.4477153,12 34,12 C34.5522847,12 35,11.5522847 35,11 L35,8 L36,8 C36.5522847,8 37,7.55228475 37,7 C37,6.44771525 36.5522847,6 36,6 L12.444,6 C12.8039241,5.39465346 12.9958554,4.70425323 13,4 C13,1.790861 11.209139,1.3527075e-16 9,0 Z M9,2 C9.88960684,1.99278442 10.6770385,2.57405232 10.9321958,3.42631232 C11.1873532,4.27857232 10.8488904,5.19692077 10.1016775,5.67975122 C9.35446456,6.16258166 8.37814934,6.09381014 7.706,5.511 C7.54995458,5.13530818 7.33751095,4.78561922 7.076,4.474 C7.02826763,4.32041506 7.00267679,4.16080904 7,4 C7,2.8954305 7.8954305,2 9,2 Z M2,7 C2,5.8954305 2.8954305,5 4,5 C5.1045695,5 6,5.8954305 6,7 C6,8.1045695 5.1045695,9 4,9 C3.46956702,9 2.96085919,8.78928632 2.58578644,8.41421356 C2.21071368,8.03914081 2,7.53043298 2,7 Z M9,12 C7.8954305,12 7,11.1045695 7,10 C7.00267679,9.83919096 7.02826763,9.67958494 7.076,9.526 C7.33751095,9.21438078 7.54995458,8.86469182 7.706,8.489 C8.37814934,7.90618986 9.35446456,7.83741834 10.1016775,8.32024878 C10.8488904,8.80307923 11.1873532,9.72142768 10.9321958,10.5736877 C10.6770385,11.4259477 9.88960684,12.0072156 9,12 Z" id="Shape"/></g></g></svg>
