<?xml version="1.0" encoding="iso-8859-1"?>
<!-- Generator: Adobe Illustrator 19.0.0, SVG Export Plug-In . SVG Version: 6.00 Build 0)  -->
<svg version="1.1" id="Capa_1" xmlns="http://www.w3.org/2000/svg" xmlns:xlink="http://www.w3.org/1999/xlink" x="0px" y="0px"
	 viewBox="0 0 60 60" style="enable-background:new 0 0 60 60;" xml:space="preserve">
<g>
	<path d="M43.038,0H17.962C15.777,0,14,1.777,14,3.961V6v3c-0.553,0-1,0.448-1,1v1c0,0.552,0.447,1,1,1v1c-0.553,0-1,0.448-1,1v1
		c0,0.552,0.447,1,1,1v1c-0.553,0-1,0.448-1,1v1c0,0.552,0.447,1,1,1v31v5.039C14,58.223,15.777,60,17.962,60h25.076
		C45.223,60,47,58.223,47,56.039V51V6V3.961C47,1.777,45.223,0,43.038,0z M16,8h29v41H16V8z M45,56.039C45,57.12,44.12,58,43.038,58
		H17.962C16.88,58,16,57.12,16,56.039V51h29V56.039z M16,6V3.961C16,2.88,16.88,2,17.962,2h25.076C44.12,2,45,2.88,45,3.961V6H16z"
		/>
	<path d="M35,3h-5c-0.553,0-1,0.448-1,1s0.447,1,1,1h5c0.553,0,1-0.448,1-1S35.553,3,35,3z"/>
	<path d="M27,3h-1c-0.553,0-1,0.448-1,1s0.447,1,1,1h1c0.553,0,1-0.448,1-1S27.553,3,27,3z"/>
	<circle cx="30.5" cy="54.5" r="2.5"/>
	<path d="M38,27h-2v-2.5c0-3.033-2.468-5.5-5.5-5.5S25,21.467,25,24.5V27h-2c-0.553,0-1,0.448-1,1v12c0,0.552,0.447,1,1,1h15
		c0.553,0,1-0.448,1-1V28C39,27.448,38.553,27,38,27z M27,24.5c0-1.93,1.57-3.5,3.5-3.5s3.5,1.57,3.5,3.5V27h-7V24.5z M37,39H24V29
		h2h9h2V39z"/>
</g>
<g>
</g>
<g>
</g>
<g>
</g>
<g>
</g>
<g>
</g>
<g>
</g>
<g>
</g>
<g>
</g>
<g>
</g>
<g>
</g>
<g>
</g>
<g>
</g>
<g>
</g>
<g>
</g>
<g>
</g>
</svg>
