<svg height="512pt" viewBox="-1 0 512 512" width="512pt" xmlns="http://www.w3.org/2000/svg"><path d="m61.53125 319.503906c-.019531-.019531-.113281-.101562-.136719-.121094-3.132812-2.691406-7.835937-2.332031-10.542969.789063-2.707031 3.121094-2.359374 7.855469.75 10.574219l4.976563-5.613282-4.953125 5.628907c1.421875 1.253906 3.191406 1.871093 4.949219 1.871093 2.082031 0 4.152343-.859374 5.632812-2.542968 2.738281-3.109375 2.433594-7.851563-.675781-10.585938zm0 0"/><path d="m32.761719 297.1875c-3.40625 2.355469-4.261719 7.027344-1.90625 10.433594.011719.019531.082031.117187.09375.132812 1.453125 2.0625 3.746093 3.160156 6.085937 3.160156 1.484375 0 2.992188-.445312 4.308594-1.363281 3.386719-2.363281 4.203125-7.058593 1.855469-10.453125-2.355469-3.410156-7.027344-4.265625-10.4375-1.910156zm0 0"/><path d="m136.902344 347.167969c-4.140625.0625-7.445313 3.46875-7.386719 7.609375.0625 4.105468 3.410156 7.390625 7.5 7.390625.035156 0 .074219 0 .113281-.003907h.097656c4.140626-.0625 7.398438-3.46875 7.335938-7.609374-.0625-4.144532-3.546875-7.433594-7.660156-7.386719zm0 0"/><path d="m84.074219 334.804688c-3.679688-1.902344-8.203125-.457032-10.105469 3.21875-1.898438 3.679687-.457031 8.207031 3.222656 10.105468.011719.007813.113282.0625.128906.066406 1.082032.554688 2.234376.8125 3.367188.8125 2.71875 0 5.332031-1.5 6.664062-4.097656 1.882813-3.675781.394532-8.207031-3.277343-10.105468zm0 0"/><path d="m17.253906 256.789062c4.113282-.5 7.035156-4.285156 6.535156-8.394531-.496093-4.113281-4.234374-7.042969-8.347656-6.542969-4.109375.496094-7.039062 4.234376-6.542968 8.347657l.011718.09375c.460938 3.804687 3.6875 6.550781 7.417969 6.550781.308594 0 .617187-.019531.925781-.054688zm0 0"/><path d="m15.445312 227.613281c.300782.039063.601563.054688.898438.054688 3.746094 0 6.992188-2.835938 7.453125-6.644531.5-4.113282-2.429687-7.847657-6.542969-8.347657-4.109375-.5-7.847656 2.429688-8.347656 6.542969l-.011719.097656c-.496093 4.113282 2.4375 7.800782 6.550781 8.296875zm0 0"/><path d="m30.390625 274.996094c-1.441406-3.882813-5.757813-5.863282-9.640625-4.421875-3.882812 1.4375-5.863281 5.757812-4.421875 9.640625.011719.03125.058594.15625.070313.1875 1.152343 2.976562 3.992187 4.796875 7 4.796875.898437 0 1.8125-.160157 2.703124-.503907 3.863282-1.496093 5.785157-5.835937 4.289063-9.699218zm0 0"/><path d="m109.730469 344.234375c-4.03125-.945313-8.070313 1.558594-9.015625 5.589844-.945313 4.03125 1.558594 8.066406 5.589844 9.015625.011718 0 .113281.023437.121093.027344.566407.128906 1.128907.191406 1.6875.191406 3.398438 0 6.453125-2.347656 7.257813-5.8125.9375-4.03125-1.613282-8.070313-5.640625-9.011719zm0 0"/><path d="m264.792969 492.828125-.210938-.023437c-4.109375-.359376-7.710937 2.664062-8.097656 6.773437-.386719 4.105469 2.644531 7.757813 6.75 8.164063l.789063-7.457032-.765626 7.460938c.257813.027344.519532.039062.777344.039062 3.796875 0 7.050782-2.871094 7.449219-6.730468.425781-4.121094-2.574219-7.804688-6.691406-8.226563zm0 0"/><path d="m180.433594 454.21875c-3.132813 2.710938-3.472656 7.445312-.765625 10.578125.015625.019531.097656.113281.117187.128906 1.472656 1.671875 3.511719 2.519531 5.570313 2.519531 1.753906 0 3.519531-.617187 4.953125-1.871093 3.109375-2.714844 3.40625-7.46875.703125-10.589844-2.710938-3.136719-7.445313-3.476563-10.578125-.765625zm0 0"/><path d="m212.136719 473.730469c-.03125-.019531-.121094-.078125-.148438-.101563-3.445312-2.296875-8.121093-1.375-10.417969 2.070313-2.296874 3.445312-1.378906 8.09375 2.066407 10.390625.003906.003906.035156.023437.039062.027344 1.292969.886718 2.761719 1.308593 4.214844 1.308593 2.390625 0 4.738281-1.144531 6.191406-3.265625 2.339844-3.410156 1.464844-8.082031-1.945312-10.429687zm0 0"/><path d="m293.003906 492-.226562.035156c-4.085938.671875-6.878906 4.53125-6.207032 8.621094.605469 3.675781 3.769532 6.289062 7.371094 6.289062.402344 0 .8125-.035156 1.222656-.101562l-1.070312-7.421875 1.089844 7.421875c4.097656-.605469 6.933594-4.414062 6.328125-8.511719-.601563-4.101562-4.410157-6.933593-8.507813-6.332031zm0 0"/><path d="m237.207031 486.617188c-3.878906-1.453126-8.199219.511718-9.65625 4.390624-1.453125 3.878907.511719 8.199219 4.390625 9.65625l.226563.082032c.828125.292968 1.675781.433594 2.507812.433594 3.089844 0 5.992188-1.917969 7.082031-4.996094 1.382813-3.90625-.644531-8.183594-4.550781-9.566406zm0 0"/><path d="m165.765625 405.078125c-.859375-4.054687-4.839844-6.636719-8.894531-5.78125-4.050782.859375-6.640625 4.839844-5.78125 8.890625.007812.027344.035156.152344.042968.179688.777344 3.480468 3.851563 5.816406 7.277344 5.816406.535156 0 1.082032-.054688 1.625-.175782 4.03125-.878906 6.585938-4.894531 5.730469-8.929687zm0 0"/><path d="m155.734375 384.277344c4.039063 0 7.375-3.210938 7.492187-7.277344.179688-4.136719-3.027343-7.636719-7.167968-7.816406-4.144532-.175782-7.636719 3.027344-7.816406 7.164062l-.007813.207032c-.121094 4.140624 3.136719 7.597656 7.277344 7.71875.074219.003906.148437.003906.222656.003906zm0 0"/><path d="m165.15625 428.261719c-3.703125 1.851562-5.207031 6.355469-3.355469 10.0625.007813.015625.0625.117187.066407.132812 1.320312 2.589844 3.925781 4.066407 6.640624 4.066407 1.144532 0 2.308594-.261719 3.402344-.8125 3.6875-1.859376 5.15625-6.398438 3.308594-10.09375-1.855469-3.707032-6.359375-5.210938-10.0625-3.355469zm0 0"/><path d="m328.636719 91.113281c1.371093 2.460938 3.914062 3.84375 6.539062 3.84375 1.226563 0 2.472657-.300781 3.625-.933593 3.617188-1.992188 4.933594-6.554688 2.957031-10.179688l-6.613281 3.535156 6.601563-3.5625c-1.96875-3.644531-6.519532-5.003906-10.164063-3.039062-3.644531 1.96875-5.003906 6.519531-3.039062 10.164062zm0 0"/><path d="m316.515625 69.367188c1.84375 0 3.691406-.675782 5.140625-2.042969 3.015625-2.839844 3.15625-7.585938.316406-10.601563l-.125-.128906c-2.871094-2.988281-7.609375-3.070312-10.59375-.199219-2.988281 2.871094-3.070312 7.628907-.199218 10.617188 1.476562 1.5625 3.464843 2.355469 5.460937 2.355469zm0 0"/><path d="m342.136719 148.308594c-.171875 4.140625 3.042969 7.632812 7.179687 7.808594.109375.003906.214844.003906.320313.003906 3.996093 0 7.320312-3.15625 7.488281-7.1875l.003906-.207032c.117188-4.140624-3.148437-7.589843-7.289062-7.707031-4.140625-.117187-7.585938 3.148438-7.703125 7.289063zm0 0"/><path d="m339.183594 118.730469c.789062 3.484375 3.882812 5.851562 7.3125 5.851562.546875 0 1.101562-.058593 1.65625-.183593 4.039062-.914063 6.578125-4.925782 5.664062-8.964844l-.050781-.226563c-.976563-4.023437-5.035156-6.503906-9.058594-5.527343-4.027343.980468-6.5 5.023437-5.523437 9.050781zm0 0"/><path d="m231.171875 32.253906h.105469.105468c4.09375 0 7.441407-3.289062 7.5-7.394531.054688-4.144531-3.253906-7.546875-7.398437-7.605469h-.105469c-.035156 0-.070312 0-.105468 0-4.089844 0-7.4375 3.289063-7.496094 7.394532-.058594 4.144531 3.253906 7.546874 7.394531 7.605468zm0 0"/><path d="m287.832031 48.382812c1.234375.769532 2.605469 1.132813 3.957031 1.132813 2.503907 0 4.953126-1.253906 6.375-3.535156 2.1875-3.515625 1.113282-8.140625-2.402343-10.328125l-.210938-.128906c-3.558593-2.125-8.175781-.972657-10.300781 2.585937-2.121094 3.554687-.972656 8.148437 2.582031 10.273437zm0 0"/><path d="m260.550781 36.511719.226563.0625c.660156.179687 1.320312.265625 1.972656.265625 3.304688 0 6.34375-2.195313 7.25-5.535156 1.085938-3.996094-1.253906-8.109376-5.25-9.195313l-2.109375 7.199219 2.089844-7.203125c-3.980469-1.15625-8.140625 1.136719-9.292969 5.113281-1.152344 3.980469 1.136719 8.140625 5.113281 9.292969zm0 0"/><path d="m478.707031 262.21875.035157.125c.886718 3.359375 3.921874 5.582031 7.246093 5.582031.632813 0 1.277344-.082031 1.921875-.25 4.003906-1.058593 6.390625-5.167969 5.332032-9.171875l-.019532-.074218c-1.046875-4.007813-5.144531-6.40625-9.152344-5.363282-4.007812 1.046875-6.410156 5.144532-5.363281 9.152344zm0 0"/><path d="m482.382812 291.292969c-.058593 4.140625 3.25 7.542969 7.394532 7.601562h.105468c4.09375 0 7.4375-3.289062 7.496094-7.394531l.003906-.207031c0-4.144531-3.359374-7.5-7.5-7.5-4.144531 0-7.5 3.355469-7.5 7.5zm0 0"/><path d="m450.050781 211.941406c1.460938 1.464844 3.375 2.191406 5.289063 2.191406 1.910156 0 3.828125-.730468 5.292968-2.1875 2.933594-2.917968 2.9375-7.667968.03125-10.605468l-5.382812 5.226562 5.355469-5.25c-2.898438-2.960937-7.648438-3.007812-10.605469-.105468-2.957031 2.898437-3.003906 7.648437-.105469 10.605468zm0 0"/><path d="m474.214844 239.019531c1.246094 0 2.511718-.3125 3.679687-.96875 3.605469-2.035156 4.878907-6.613281 2.84375-10.21875l-.078125-.136719c-2.0625-3.59375-6.632812-4.8125-10.222656-2.75-3.59375 2.0625-4.824219 6.667969-2.761719 10.261719 1.378907 2.441407 3.917969 3.8125 6.539063 3.8125zm0 0"/><path d="m426.839844 193.839844.136718.082031c1.183594.6875 2.480469 1.015625 3.757813 1.015625 2.585937 0 5.101563-1.339844 6.492187-3.734375 2.082032-3.582031.863282-8.171875-2.71875-10.253906l-.042968-.027344c-3.570313-2.101563-8.167969-.917969-10.273438 2.648437-2.105468 3.566407-.917968 8.164063 2.648438 10.269532zm0 0"/><path d="m370.878906 178.410156.210938.003906c4.125 0 7.449218-3.335937 7.472656-7.460937.019531-4.128906-3.320312-7.496094-7.445312-7.539063l-.132813 7.496094.105469-7.496094c-.035156-.003906-.070313-.003906-.105469-.003906-4.09375 0-7.441406 3.289063-7.5 7.398438-.058594 4.140625 3.25 7.542968 7.394531 7.601562zm0 0"/><path d="m399.882812 182.433594.125.035156c.667969.183594 1.335938.269531 1.996094.269531 3.292969 0 6.3125-2.183593 7.226563-5.507812 1.101562-3.996094-1.246094-8.125-5.238281-9.222657l-.074219-.019531c-3.988281-1.117187-8.125 1.214844-9.242188 5.203125-1.113281 3.988282 1.214844 8.125 5.207031 9.242188zm0 0"/><path d="m384.953125 249.945312c-3.425781-30.632812-17.371094-57.960937-38.066406-78.425781-.820313-1.789062-2.292969-3.136719-4.046875-3.832031-23.351563-21.21875-54.339844-34.105469-88.152344-34.105469-25.75 0-49.785156 7.46875-70.066406 20.34375-2.097656-1.085937-4.269532-2.035156-6.515625-2.792969l-12.761719-4.296874c-2.046875-.683594-3.90625-1.863282-5.398438-3.425782-2.398437-2.507812-3.722656-5.8125-3.722656-9.3125v-13.691406l4.285156-2.613281c7.636719-4.65625 12.378907-13.109375 12.378907-22.0625v-22.617188c0-.019531 0-.042969 0-.0625v-19.734375c0-15.78125-12.824219-28.621094-28.585938-28.621094h-26.105469c-15.761718 0-28.585937 12.839844-28.585937 28.621094v17.007813.027343 25.378907c0 8.953125 4.742187 17.40625 12.378906 22.0625l4.292969 2.617187v13.6875c0 3.722656-1.5625 7.3125-4.269531 9.847656-.007813.007813-.015625.019532-.023438.027344-1.390625 1.289063-3.019531 2.253906-4.84375 2.867188l-12.746093 4.292968c-19.078126 6.421876-31.894532 24.277344-31.894532 44.429688v20.910156c-23.042968-21.230468-37.503906-51.644531-37.503906-85.371094 0-64.019531 52.078125-116.101562 116.09375-116.101562 22.792969 0 44.953125 6.699219 63.792969 19.09375.511719.453125 1.078125.839844 1.695312 1.140625 3.667969 2.503906 7.207031 5.230469 10.589844 8.167969 20.886719 18.136718 34.636719 43.105468 38.722656 70.304687.613281 4.09375 4.429688 6.914063 8.527344 6.300781 4.097656-.613281 6.917969-4.433593 6.304687-8.53125-4.613281-30.726562-20.140624-58.921874-43.71875-79.398437-23.820312-20.6875-54.332031-32.078125-85.914062-32.078125-72.285156 0-131.09375 58.8125-131.09375 131.101562 0 22.992188 5.957031 44.617188 16.398438 63.421876.25.644531.589843 1.246093 1.007812 1.800781 21.480469 37.304687 60.796875 63.097656 106.222656 65.660156-.019531.898437-.035156 1.796875-.035156 2.699219 0 31.320312 11.046875 60.105468 29.4375 82.675781.144531 3.148437 2.257812 6.003906 5.445312 6.902344.242188.066406.484376.109375.730469.152343.207031.21875.40625.441407.617188.660157.464843.660156 1.023437 1.230469 1.660156 1.703125 22.460937 22.734375 53.152344 37.316406 87.1875 38.859375 4.976563 44.300781 32.117187 81.992187 70.039063 101.6875.503906.34375 1.046874.609375 1.613281.820312 17.648437 8.859375 37.554687 13.855469 58.605469 13.855469 37.460937 0 73.214843-16.082031 98.09375-44.125 2.746093-3.097656 2.464843-7.839844-.632813-10.589844-3.097656-2.746094-7.839844-2.460937-10.589844.632813-2.53125 2.855469-5.195312 5.5625-7.96875 8.128906v-20.683594c0-20.148437-12.8125-38-31.886719-44.429687l-12.769531-4.292969c-2.035156-.683594-3.898437-1.867187-5.394531-3.4375-2.402344-2.507813-3.726562-5.8125-3.726562-9.304687v-13.691407l4.289062-2.613281c7.636719-4.65625 12.382812-13.109375 12.382812-22.0625v-22.617188c0-.019531 0-.042968 0-.0625v-19.734374c0-15.78125-12.824218-28.621094-28.589843-28.621094h-26.105469c-15.761719 0-28.585938 12.835937-28.585938 28.621094v17.007812.027344 25.378906c0 8.953125 4.742188 17.40625 12.382813 22.0625l4.292969 2.621094v13.683594c0 3.726562-1.566406 7.320312-4.292969 9.859374-1.40625 1.308594-3.035156 2.277344-4.851563 2.886719l-12.746093 4.292969c-19.070313 6.421875-31.882813 24.273438-31.882813 44.425781v20.914063c-23.046875-21.230469-37.511718-51.644532-37.511718-85.375 0-63.53125 51.289062-115.296875 114.632812-116.082032.339844.027344.683594.039063 1.035156.019532.113282-.007813.222656-.027344.332032-.039063h.09375c42.109374 0 79.054687 22.542969 99.40625 56.191407.113281.242187 4.808593 8.410156 4.574218 8.320312 7.746094 15.550781 12.113282 33.070312 12.113282 51.589844 0 18.878906-4.386719 36.878906-13.035157 53.503906-1.910156 3.671875-.480469 8.203125 3.191407 10.113281 3.675781 1.914063 8.207031.484375 10.117187-3.191406 9.632813-18.519531 14.726563-39.414063 14.726563-60.425781 0-70.273438-55.570313-127.796875-125.070313-130.957032zm-6.332031 179.660157 8.398437 26.847656-8.488281 8.554687-7.546875-8.414062zm.160156-33.886719c-3.988281.082031-7.941406-.25-11.832031-.960938 1.410156-3.417968 2.171875-7.105468 2.171875-10.859374v-4.886719c3.191406 1.34375 6.574218 2.019531 9.960937 2.019531 3.390625 0 6.777344-.679688 9.972657-2.027344v4.894532c0 3.558593.65625 7.023437 1.902343 10.257812-3.992187.941406-8.0625 1.472656-12.175781 1.5625zm-12.75-106.222656h26.101562c7.496094 0 13.589844 6.109375 13.589844 13.621094v9.410156l-35.484375-11.425782c-1.914062-.613281-3.992187-.4375-5.769531.492188l-12.027344 6.28125v-4.757812c0-7.511719 6.097656-13.621094 13.589844-13.621094zm-13.589844 35.296875 16.1875-8.449219 37.09375 11.9375v17.25c0 3.757812-1.988281 7.304688-5.1875 9.253906l-15.839844 9.65625c-3.460937 2.109375-7.761718 2.109375-11.222656 0l-15.839844-9.65625c-3.203124-1.949218-5.191406-5.496094-5.191406-9.253906zm-37.097656 120.570312c0-13.707031 8.710938-25.847656 21.671875-30.210937l12.738281-4.289063c2.367188-.796875 4.585938-1.882812 6.636719-3.246093 3.984375 1.195312 8.035156 2.050781 12.136719 2.554687l-13.097656 46.3125c-.703126 2.472656-.085938 5.132813 1.632812 7.046875l15.613281 17.410156c1.378907 1.539063 3.328125 2.4375 5.394531 2.492188h.1875c1.996094 0 3.917969-.796875 5.324219-2.21875l17.269531-17.410156c1.957032-1.972657 2.660157-4.867188 1.832032-7.519532l-14.5-46.347656c4.273437-.625 8.484375-1.628906 12.609375-3.003906 2.324219 1.6875 4.898437 3.015625 7.613281 3.925781l12.75 4.289063c12.964844 4.367187 21.671875 16.507812 21.671875 30.214843v32.449219c-18.796875 12.386719-40.984375 19.1875-63.898437 19.1875-23.457032 0-45.308594-7.003906-63.585938-19.011719zm-144.953125-281c-8.054687 6.78125-15.285156 14.511719-21.515625 23.019531l-8.523438-27.242187c4.269532-.625 8.480469-1.628906 12.605469-3.003906 2.320313 1.683593 4.894531 3.011719 7.613281 3.921875zm-39.691406 50.84375-7.550781-8.414062 7.640624-26.992188 7.625 24.378907c-1.101562 2.105468-2.148437 4.242187-3.136718 6.410156zm-9.421875-86c3.195312 1.347657 6.582031 2.027344 9.96875 2.027344 3.390625 0 6.78125-.683594 9.976562-2.027344v4.886719c0 3.5625.65625 7.027344 1.898438 10.261719-3.992188.941406-8.0625 1.472656-12.175782 1.5625-3.992187.085937-7.945312-.246094-11.835937-.960938 1.410156-3.417969 2.167969-7.105469 2.167969-10.863281zm-3.082032-89.511719h26.105469c7.492188 0 13.585938 6.109376 13.585938 13.621094v9.410156l-35.484375-11.421874c-1.910156-.617188-3.988282-.4375-5.769532.492187l-12.027343 6.277344v-4.757813c0-7.511718 6.097656-13.621094 13.589843-13.621094zm-13.589843 35.300782 16.1875-8.453125 37.097656 11.941406v17.246094c0 3.757812-1.992187 7.304687-5.191406 9.257812l-15.839844 9.652344c-3.460937 2.109375-7.761719 2.109375-11.222656 0l-15.839844-9.652344c-3.199219-1.953125-5.1875-5.5-5.1875-9.257812v-20.734375zm-37.101563 153.1875v-32.625c0-13.703125 8.710938-25.84375 21.679688-30.210938l12.746094-4.292968c2.367187-.796876 4.582031-1.882813 6.628906-3.234376 3.980468 1.195313 8.035156 2.046876 12.136718 2.554688l-13.105468 46.308594c-.699219 2.476562-.082032 5.136718 1.632812 7.050781l15.621094 17.410156c.734375.816407 1.632812 1.449219 2.625 1.875-1.140625 4.582031-2.039062 9.253907-2.683594 14.007813-21.066406-1.132813-40.652344-7.914063-57.28125-18.84375zm187.183594-79.601563c32.632812 0 62.300781 13.546875 83.476562 35.4375.472657.722657 1.078126 1.359375 1.789063 1.890625 16.007813 17.300782 26.828125 39.507813 29.914063 64.207032-29.222657 2.007812-55.847657 13.625-76.714844 31.722656l-4.21875-1.421875c-2.074219-.695313-3.882813-1.84375-5.394532-3.429688-2.402343-2.503906-3.726562-5.8125-3.726562-9.3125v-13.6875l4.285156-2.613281c7.640625-4.65625 12.382813-13.109375 12.382813-22.0625v-22.617188c0-.019531 0-.042968 0-.0625v-19.734374c0-15.78125-12.824219-28.621094-28.585938-28.621094h-26.105469c-15.765624 0-28.589843 12.835937-28.589843 28.621094v17.007812.027344 25.378906c0 8.953125 4.746093 17.40625 12.382812 22.0625l4.289063 2.617188v13.683593c0 3.734375-1.566406 7.332031-4.285156 9.871094-1.390626 1.289063-3.023438 2.257813-4.851563 2.875l-12.746094 4.292969c-7.160156 2.410156-13.699219 6.570312-18.910156 12.027344-2.863281 2.996093-2.753906 7.742187.242187 10.605468 1.453126 1.386719 3.316407 2.074219 5.179688 2.074219 1.976562 0 3.953125-.777344 5.425781-2.320313 3.539063-3.707031 7.980469-6.535156 12.847657-8.171874l12.746093-4.292969c2.367188-.796875 4.582031-1.878907 6.628907-3.234375 3.980468 1.195312 8.035156 2.050781 12.136718 2.554687l-13.105468 46.308594c-.699219 2.476563-.082032 5.136719 1.636718 7.050781l15.617188 17.410156c.113281.125.238281.238282.359375.359376-.617188 5.078124-.941407 10.25-.953125 15.492187-20.863282-1.21875-40.257813-7.972656-56.746094-18.808594v-32.625c0-4.140625-3.359375-7.5-7.5-7.5-4.144531 0-7.5 3.359375-7.5 7.5v20.910157c-23.042969-21.230469-37.503906-51.640626-37.503906-85.371094.003906-64.019532 52.082031-116.101563 116.097656-116.101563zm14.242188 161.082031-4.984376-15.941406c4.269532-.625 8.480469-1.632812 12.605469-3.003906 1.492188 1.082031 3.089844 2.007812 4.761719 2.777344-4.527344 5.054687-8.671875 10.457031-12.382812 16.167968zm-16.546876 36.996094-5.640624-6.289062 7.636718-26.988282 4.589844 14.679688c-2.644531 5.980469-4.851562 12.191406-6.585938 18.597656zm29.097657-150.351562-35.484375-11.425782c-1.914063-.613281-3.992188-.4375-5.769532.492188l-12.027343 6.28125v-4.757812c0-7.511719 6.09375-13.621094 13.589843-13.621094h26.101563c7.492187 0 13.589844 6.109375 13.589844 13.621094zm-53.28125 12.265625 16.1875-8.449219 37.09375 11.9375v17.25c0 3.757812-1.988281 7.304688-5.1875 9.253906l-15.839844 9.65625c-3.460937 2.109375-7.761719 2.109375-11.222656 0l-15.839844-9.65625c-3.203125-1.953125-5.191406-5.496094-5.191406-9.253906zm16.671875 59.101562v-4.886719c3.195312 1.347657 6.582031 2.027344 9.96875 2.027344 3.390625 0 6.78125-.683594 9.972656-2.027344v4.886719c0 3.5625.660156 7.027344 1.902344 10.261719-3.992188.941406-8.0625 1.476562-12.175782 1.5625-3.988281.085938-7.941406-.246094-11.835937-.960938 1.410156-3.417968 2.167969-7.109374 2.167969-10.863281zm0 0"/></svg>